<?xml version="1.0" standalone="no"?>
<!DOCTYPE svg PUBLIC "-//W3C//DTD SVG 20010904//EN"
 "http://www.w3.org/TR/2001/REC-SVG-20010904/DTD/svg10.dtd">
<svg version="1.0" xmlns="http://www.w3.org/2000/svg"
 width="100" height="100" viewBox="0 0 960.000000 960.000000"
 preserveAspectRatio="xMidYMid meet">

<g transform="translate(0.000000,960.000000) scale(0.100000,-0.100000)"
fill="#000000" stroke="none">
<path d="M4550 9550 c-635 -44 -1252 -211 -1806 -491 -212 -107 -275 -143
-497 -291 -289 -191 -464 -335 -713 -583 -203 -202 -293 -305 -480 -550 -202
-263 -447 -708 -587 -1065 -483 -1226 -429 -2604 147 -3785 436 -896 1122
-1613 2001 -2092 420 -229 956 -417 1407 -492 350 -59 432 -65 818 -66 233 0
408 5 485 13 1017 110 1922 510 2675 1181 358 319 699 737 936 1146 329 569
529 1181 611 1865 25 210 25 795 0 1005 -73 613 -235 1147 -506 1670 -229 441
-478 781 -831 1136 -293 294 -461 433 -780 643 -631 415 -1391 678 -2155 746
-165 15 -573 20 -725 10z m495 -369 c3 -5 -5 -11 -17 -13 -21 -3 -24 -10 -29
-73 -4 -38 -7 -114 -8 -168 -1 -95 0 -98 24 -107 41 -15 29 -20 -37 -16 -35 2
-81 5 -103 6 -34 2 -36 3 -15 9 33 9 37 33 39 208 l1 141 -27 10 c-22 8 -8 11
69 11 53 1 99 -3 103 -8z m-344 -18 c58 -34 60 -122 4 -159 -14 -9 -25 -20
-25 -25 0 -17 113 -149 127 -149 8 0 11 -4 8 -10 -3 -5 -32 -10 -63 -10 l-57
0 -63 80 c-35 44 -69 80 -75 80 -8 0 -11 -21 -9 -71 3 -65 6 -71 30 -81 24
-10 15 -13 -67 -20 -100 -8 -121 -5 -77 11 l26 10 -6 123 c-7 181 -12 209 -35
215 -52 14 -6 23 117 23 111 0 141 -3 165 -17z m714 -24 c22 -11 53 -38 70
-62 26 -36 30 -51 30 -107 0 -76 -19 -116 -77 -163 -41 -33 -113 -46 -183 -33
-85 16 -153 121 -142 218 17 143 162 213 302 147z m-1142 14 c3 -5 8 -30 12
-58 l6 -50 -22 28 c-29 37 -62 49 -116 41 -43 -6 -45 -7 -40 -38 3 -17 9 -50
12 -73 4 -24 12 -43 19 -43 20 0 43 31 53 70 10 34 10 34 22 -35 6 -38 14 -85
17 -102 8 -41 -8 -43 -23 -3 -11 29 -49 53 -66 43 -9 -6 0 -95 14 -132 8 -20
14 -22 46 -16 62 11 94 34 111 76 8 21 18 37 22 34 10 -6 12 -103 2 -109 -5
-3 -67 -15 -138 -26 -71 -11 -142 -23 -159 -26 l-30 -5 24 19 c27 22 27 18 -4
222 -17 111 -25 130 -59 131 -36 1 -3 9 136 34 158 27 156 27 161 18z m1476
-69 c157 -39 191 -62 191 -134 0 -46 -23 -77 -63 -88 -18 -5 -31 -15 -30 -23
3 -29 53 -152 69 -170 16 -17 16 -19 1 -19 -43 0 -107 25 -113 45 -26 80 -68
175 -79 175 -14 0 -35 -71 -35 -118 0 -18 6 -32 16 -36 9 -4 14 -9 12 -12 -6
-5 -168 32 -176 41 -3 3 5 5 17 5 27 0 33 14 71 167 35 141 36 161 13 179 -25
19 -15 17 106 -12z m-1868 -53 c43 -43 41 -93 -6 -137 -20 -18 -51 -36 -71
-40 -35 -6 -36 -8 -30 -43 14 -88 26 -111 53 -111 42 0 16 -15 -69 -38 -92
-26 -100 -27 -70 -4 l24 19 -41 157 c-23 86 -41 159 -41 162 0 2 -12 4 -27 4
-14 0 -23 3 -19 7 15 16 163 51 214 52 46 1 57 -3 83 -28z m-393 -62 c-26 -15
-23 -39 22 -160 22 -60 40 -121 40 -136 0 -94 -139 -165 -229 -118 -32 16 -43
37 -96 183 -34 90 -41 102 -62 102 -42 0 -24 15 55 44 101 38 111 40 85 20
-13 -9 -23 -22 -23 -29 0 -12 67 -197 90 -246 18 -39 53 -52 95 -35 67 28 69
78 12 228 -38 100 -51 118 -77 111 -11 -3 -20 -1 -20 4 0 10 76 40 105 41 18
1 19 1 3 -9z m2892 -49 c58 -21 117 -43 132 -49 l27 -10 -16 -46 c-19 -49 -33
-59 -33 -21 0 13 -3 32 -6 41 -6 16 -62 50 -70 43 -2 -3 -29 -74 -60 -158
l-56 -154 24 -18 c33 -25 15 -22 -76 11 -86 33 -100 41 -68 41 12 0 28 10 35
23 20 32 111 286 105 293 -3 3 -22 7 -41 11 -30 4 -40 1 -60 -21 -34 -36 -38
-33 -22 15 21 58 23 59 53 48 15 -6 74 -28 132 -49z m385 -165 c74 -35 135
-67 135 -70 0 -11 -45 -95 -51 -95 -3 0 -6 17 -5 39 1 45 -14 65 -65 91 -29
15 -39 17 -47 7 -14 -17 -64 -118 -60 -122 2 -1 13 -6 25 -9 16 -5 31 1 57 25
20 17 36 28 36 25 0 -13 -85 -176 -92 -176 -4 0 -5 14 -1 31 5 29 -12 79 -28
79 -10 0 -69 -106 -69 -125 0 -22 44 -47 93 -52 34 -4 50 0 80 21 20 14 37 23
37 19 0 -7 -61 -103 -65 -103 -7 0 -288 139 -293 146 -4 4 3 5 14 2 12 -3 27
-3 32 1 15 9 142 268 142 289 0 10 -5 23 -12 30 -21 21 -1 13 137 -53z m-3707
0 c30 -60 28 -72 -8 -42 -40 34 -81 42 -118 23 -35 -18 -45 -47 -26 -74 11
-16 30 -20 108 -25 75 -4 102 -10 125 -27 33 -23 53 -75 44 -112 -15 -57 -78
-108 -137 -108 -14 0 -34 -10 -45 -22 l-20 -21 -30 63 c-31 66 -32 91 -2 54
24 -30 58 -46 97 -46 68 0 109 52 75 94 -15 18 -32 22 -107 28 -49 3 -99 12
-111 18 -48 26 -66 86 -43 146 13 35 66 66 113 66 24 0 40 5 43 15 9 24 17 18
42 -30z m4120 -219 c16 -8 47 -34 68 -56 25 -26 45 -39 57 -36 24 6 22 -5 -15
-65 l-33 -53 -5 61 c-5 64 -18 86 -61 109 -41 21 -70 17 -120 -14 -51 -33 -96
-107 -105 -173 -5 -36 -2 -49 16 -72 33 -41 76 -60 127 -54 31 3 43 1 43 -8 0
-17 -54 -23 -107 -12 -49 9 -129 76 -149 124 -40 95 14 211 121 260 37 16 121
11 163 -11z m-4622 -67 c49 -13 103 -57 128 -106 22 -43 21 -138 -2 -183 -9
-19 -41 -52 -71 -72 -45 -31 -63 -38 -103 -38 -121 0 -208 85 -208 202 0 105
86 192 203 207 5 1 28 -4 53 -10z m4911 -136 l42 -34 3 -145 3 -145 58 78 c36
48 55 83 51 93 -3 8 -8 21 -12 29 -3 8 15 -1 41 -20 48 -35 60 -55 29 -45 -25
8 -38 -4 -127 -119 -96 -124 -125 -159 -129 -154 -2 2 -6 91 -9 198 -4 106 -8
195 -10 197 -3 3 -86 -104 -136 -174 -19 -28 -21 -38 -12 -58 15 -35 0 -30
-50 16 l-44 39 31 -5 c30 -6 35 -1 99 83 38 48 80 100 93 115 20 22 24 34 19
63 -7 40 -4 40 60 -12z m-3105 -86 c61 -35 157 -140 202 -220 20 -36 41 -69
47 -73 6 -3 23 5 37 19 76 71 191 88 281 43 55 -28 94 -70 142 -150 19 -31 40
-56 47 -56 7 0 34 17 60 38 86 70 144 79 230 36 64 -32 102 -74 221 -250 52
-77 118 -171 147 -210 80 -106 239 -253 434 -401 96 -73 245 -198 330 -279
145 -137 208 -184 245 -184 8 0 29 14 47 30 17 17 37 30 44 30 46 0 1 -125
-65 -182 -73 -63 -169 -73 -316 -33 -96 26 -209 31 -240 11 -75 -49 0 -115
303 -262 137 -67 333 -136 632 -224 581 -170 845 -306 921 -473 25 -56 25
-139 -1 -191 -72 -146 -213 -203 -670 -271 -562 -84 -717 -138 -793 -280 -18
-33 -22 -56 -22 -130 1 -82 4 -96 34 -155 94 -183 368 -368 766 -520 255 -97
440 -146 698 -184 53 -9 102 -18 107 -21 19 -12 10 -51 -17 -77 -39 -36 -78
-53 -154 -68 -80 -16 -154 -4 -234 36 l-52 27 -54 -25 c-91 -43 -130 -52 -225
-52 -83 -1 -95 2 -152 31 l-61 32 -73 -26 c-101 -37 -229 -38 -303 -3 -27 13
-57 27 -66 31 -10 5 -40 -4 -80 -24 -117 -57 -274 -48 -381 23 l-46 31 -48
-31 c-78 -49 -146 -70 -229 -70 -40 0 -84 4 -97 9 -28 11 -32 19 -138 306
-101 271 -155 437 -176 535 -20 92 -23 304 -6 380 47 205 213 370 450 449 83
28 239 54 552 91 282 33 381 51 483 85 75 26 96 45 97 88 1 89 -87 151 -449
317 -327 149 -541 268 -698 388 -73 56 -144 126 -272 267 -80 88 -189 183
-243 211 -61 31 -139 33 -186 4 -42 -26 -38 -40 15 -55 50 -15 73 -30 141 -97
62 -60 86 -100 77 -129 -9 -27 -49 -41 -94 -33 -46 9 -165 56 -256 102 -101
50 -171 72 -232 72 -46 0 -53 -3 -53 -20 0 -15 22 -31 93 -66 117 -57 189
-109 185 -132 -5 -21 -51 -19 -232 9 l-129 21 -123 -23 c-140 -25 -165 -21
-209 37 -25 33 -28 34 -95 34 -39 0 -141 15 -239 35 -119 25 -196 35 -258 35
-113 0 -132 11 -117 67 13 49 8 63 -20 63 -46 0 -61 -43 -25 -73 25 -22 20
-59 -12 -93 -38 -41 -109 -52 -434 -68 -170 -9 -393 -21 -495 -26 -245 -14
-292 -13 -354 5 -74 22 -90 35 -88 77 2 57 -17 73 -85 73 -32 0 -98 -6 -148
-12 -56 -8 -112 -9 -147 -4 -51 7 -62 13 -97 52 -51 56 -56 79 -32 133 23 53
63 84 172 135 46 21 128 69 183 106 132 90 189 116 336 155 216 57 300 95 480
218 137 94 244 179 420 333 218 191 328 303 379 384 124 197 161 238 251 279
56 25 176 16 232 -17z m-2171 -19 c16 -18 29 -36 29 -40 0 -11 -18 -10 -25 2
-9 14 -68 12 -89 -3 -11 -8 -17 -20 -14 -27 2 -8 47 -65 99 -127 89 -107 96
-113 127 -109 17 3 32 3 32 2 0 -2 -35 -32 -77 -67 -42 -35 -74 -57 -71 -49 3
8 9 22 12 30 5 13 -43 76 -176 229 l-29 33 -26 -23 c-21 -20 -24 -31 -20 -66
2 -24 3 -43 0 -43 -7 0 -58 63 -58 71 0 8 243 219 252 219 3 0 18 -15 34 -32z
m4114 -228 c27 -51 14 -156 -21 -167 -32 -10 -47 134 -18 175 19 28 20 28 39
-8z m1548 -3 c191 -81 182 -329 -15 -388 -60 -19 -120 -4 -172 43 -60 52 -79
90 -79 154 0 138 144 241 266 191z m-6019 -43 c-6 -23 4 -37 78 -112 47 -48
93 -98 102 -112 34 -51 15 -111 -53 -173 -35 -31 -48 -37 -87 -37 -42 0 -50 4
-122 72 -42 40 -79 75 -82 78 -40 41 -59 51 -79 41 -36 -20 -23 1 41 66 64 65
90 81 63 40 -15 -23 -13 -26 89 -125 87 -85 110 -102 136 -102 44 0 80 39 80
86 0 33 -10 47 -92 131 -88 90 -95 94 -127 89 l-34 -5 34 37 c32 35 51 51 57
52 1 0 -1 -12 -4 -26z m4207 -72 c36 -23 52 -42 67 -75 17 -40 15 -47 -13 -47
-41 0 -125 90 -125 135 0 12 47 4 71 -13z m549 1 c0 -29 -37 -82 -72 -103 -41
-25 -68 -26 -68 -2 0 28 37 81 72 102 41 25 68 26 68 3z m-204 -118 c146 -86
118 -307 -45 -363 -74 -26 -152 -3 -208 61 -83 95 -63 230 46 298 61 39 144
41 207 4z m1816 -122 c28 -35 48 -66 46 -69 -3 -2 -11 2 -18 11 -7 8 -19 15
-27 15 -15 0 -233 -174 -246 -197 -6 -9 0 -26 18 -48 37 -49 59 -58 124 -51
l56 6 -30 -24 c-16 -14 -43 -31 -59 -37 -24 -11 -31 -10 -40 3 -6 8 -49 61
-96 117 -47 57 -89 110 -94 119 -9 15 -7 15 16 0 l27 -18 126 102 c119 96 126
104 121 131 -5 26 -4 28 9 17 9 -7 39 -42 67 -77z m-6612 -69 c0 -2 -20 -1
-44 2 -37 5 -46 3 -65 -17 -11 -12 -21 -28 -20 -33 0 -14 225 -187 250 -193
11 -3 27 1 36 8 28 24 12 -6 -42 -76 -53 -68 -69 -80 -59 -41 5 21 -10 36
-122 125 -120 95 -129 100 -146 84 -20 -18 -24 -64 -7 -95 6 -11 8 -22 5 -25
-5 -6 -76 46 -76 56 0 3 47 66 105 139 l106 132 39 -31 c22 -18 40 -34 40 -35z
m4434 37 l28 -19 -26 -18 c-33 -21 -100 -24 -143 -5 -40 16 -41 26 -5 45 39
21 111 20 146 -3z m667 3 c25 -12 28 -18 19 -30 -20 -23 -85 -36 -127 -24 -50
13 -67 25 -58 40 19 31 117 40 166 14z m-571 -203 c0 -32 -62 -104 -103 -120
-21 -7 -40 -11 -43 -8 -11 11 17 74 44 100 46 44 102 60 102 28z m393 -4 c44
-26 77 -72 77 -104 0 -27 -1 -27 -43 -9 -44 19 -85 65 -93 104 -8 39 5 41 59
9z m-207 -82 c24 -59 12 -151 -22 -162 -32 -10 -47 134 -18 175 20 29 22 28
40 -13z m2157 -41 c60 -43 100 -123 95 -192 -8 -99 -85 -171 -193 -180 -68 -6
-124 23 -170 86 -64 88 -56 185 21 259 24 23 58 47 76 52 56 17 125 7 171 -25z
m-7209 -12 c-5 -26 1 -33 125 -115 71 -48 136 -87 143 -87 8 0 19 5 26 12 30
30 16 -4 -29 -72 -62 -92 -61 -91 -57 -56 3 27 -6 35 -127 117 -71 49 -134 89
-139 89 -5 0 -18 -7 -28 -17 -10 -9 -18 -11 -18 -5 0 11 98 162 105 162 3 0 2
-13 -1 -28z m7395 -17 c23 -40 22 -41 -62 -24 -32 7 -57 17 -57 24 0 10 39 24
92 34 3 0 15 -15 27 -34z m-7496 -210 c20 -10 37 -22 37 -26 0 -3 -18 -6 -41
-5 -32 0 -45 -5 -60 -23 -10 -13 -19 -29 -19 -35 0 -11 57 -44 233 -136 40
-21 51 -23 67 -12 11 6 22 12 25 12 7 0 -74 -150 -88 -165 -6 -7 -7 -1 -3 16
7 33 -3 42 -119 105 -169 92 -165 90 -176 74 -22 -34 -22 -62 1 -92 12 -16 20
-32 17 -34 -3 -4 -66 27 -86 43 -8 6 158 305 167 301 4 -2 24 -12 45 -23z
m7498 -156 c79 -27 140 -105 155 -199 5 -30 13 -44 28 -49 18 -7 12 -13 -42
-40 -34 -17 -62 -29 -62 -27 0 3 10 21 22 41 40 68 20 163 -38 185 -65 25
-163 -3 -232 -65 -40 -36 -44 -45 -44 -84 1 -47 24 -91 48 -91 9 0 34 10 55
22 29 16 39 28 39 47 1 20 10 8 40 -49 39 -75 54 -124 26 -87 -17 22 -26 22
-81 -5 l-45 -22 -26 25 c-14 13 -42 52 -61 87 -60 108 -46 220 37 277 63 44
120 54 181 34z m-7705 -251 c27 -12 45 -22 39 -24 -5 -1 -27 -5 -49 -9 -48 -8
-86 -45 -86 -83 0 -33 16 -52 43 -52 11 0 52 24 91 54 39 30 81 57 94 61 56
17 125 -28 136 -88 8 -44 -7 -90 -43 -136 -19 -24 -29 -45 -25 -55 9 -22 -5
-20 -72 11 l-59 28 52 5 c86 9 140 69 114 126 -18 40 -66 33 -130 -21 -68 -55
-101 -69 -145 -61 -93 18 -115 140 -37 210 13 12 19 26 15 38 -7 23 3 23 62
-4z m7974 -198 c33 -79 40 -119 16 -87 -18 24 -27 22 -141 -22 -200 -77 -190
-70 -185 -116 4 -35 -13 -7 -47 78 -32 81 -35 108 -9 72 13 -18 19 -17 142 30
177 66 184 70 184 102 0 35 5 29 40 -57z m-8148 -125 c2 -16 35 -30 171 -73
92 -29 165 -57 162 -62 -3 -4 -84 -39 -180 -77 -96 -37 -175 -71 -175 -74 0
-3 55 -23 122 -44 l122 -38 23 27 c27 32 28 25 6 -49 -18 -57 -33 -72 -33 -32
0 29 -9 33 -162 81 -134 42 -153 43 -168 15 -20 -37 -22 -12 -4 51 17 60 19
63 68 85 28 12 88 35 133 51 46 16 83 32 83 35 0 6 -158 59 -174 59 -3 0 -14
-10 -26 -22 -24 -26 -25 -20 -3 49 16 52 27 58 35 18z m8176 -124 c75 -39 112
-102 112 -191 0 -45 4 -62 15 -66 26 -11 16 -20 -41 -38 -60 -19 -81 -15 -47
9 32 22 56 82 49 120 -10 51 -66 95 -120 95 -59 0 -138 -27 -178 -60 -30 -26
-33 -33 -33 -85 0 -56 1 -58 50 -101 41 -37 46 -44 28 -44 -35 0 -89 55 -107
107 -51 148 30 272 177 273 38 0 71 -7 95 -19z m-4863 -191 c8 -13 8 -4197 0
-4210 -10 -16 -780 -13 -792 2 -6 7 -20 74 -33 148 -38 232 -89 340 -184 389
-38 20 -70 26 -164 32 -353 25 -486 52 -535 107 -21 23 -22 38 -11 221 5 102
3 138 -11 203 -16 67 -17 88 -7 142 17 93 15 109 -22 180 -19 35 -42 98 -51
139 -9 42 -24 82 -33 90 -9 7 -57 23 -105 35 -48 12 -99 29 -112 38 -52 34
-45 89 23 195 93 142 272 485 272 520 0 18 -12 62 -26 98 -97 243 -87 431 41
720 192 435 548 719 1085 866 144 39 244 60 385 79 121 16 272 20 280 6z
m-3425 -152 c14 -4 87 -21 163 -37 l137 -29 15 21 c20 29 20 10 -2 -88 -15
-70 -33 -100 -33 -55 0 26 -16 32 -184 68 l-138 29 -15 -24 c-9 -13 -17 -22
-20 -20 -3 4 14 90 34 167 l6 25 6 -24 c4 -14 17 -28 31 -33z m8385 -87 c124
-56 156 -241 58 -332 -44 -41 -73 -52 -138 -53 -112 -2 -188 68 -202 185 -18
153 140 265 282 200z m-3905 -63 c87 -26 159 -124 195 -263 40 -155 -5 -307
-105 -357 -25 -13 -46 -23 -46 -23 -1 0 7 -40 17 -90 22 -107 25 -369 5 -507
-7 -50 -8 -88 -3 -88 12 0 44 38 67 81 15 28 16 39 7 48 -9 10 -9 12 1 9 16
-4 24 9 47 80 17 51 17 54 -1 67 -18 13 -18 14 2 9 33 -9 41 44 11 70 -22 19
-22 19 -1 12 18 -5 23 -2 28 20 4 16 2 32 -6 42 -8 10 -9 13 -1 9 14 -9 21 12
25 70 2 33 -2 46 -17 57 -19 14 -19 15 3 9 22 -5 24 -3 22 28 -4 62 0 79 15
79 9 0 15 -10 15 -26 0 -21 4 -25 18 -20 15 5 15 4 2 -6 -18 -15 -44 -81 -28
-72 6 4 8 -1 5 -12 -5 -17 -17 -122 -21 -181 0 -12 -4 -25 -8 -29 -5 -4 -8
-14 -8 -22 0 -9 -8 -25 -17 -36 -17 -20 -17 -20 0 -7 9 8 20 11 24 7 4 -3 0
-12 -9 -19 -9 -6 -18 -26 -21 -44 -5 -27 -4 -31 11 -27 12 4 11 2 -3 -7 -28
-17 -35 -31 -29 -52 5 -16 2 -18 -18 -12 -15 4 -19 3 -10 -3 19 -13 -18 -74
-80 -133 -39 -38 -50 -56 -58 -97 -23 -125 -114 -428 -154 -517 -8 -16 -24
-55 -37 -85 -12 -30 -25 -59 -29 -63 -16 -18 -142 275 -176 409 -11 42 -29 82
-47 103 -16 18 -38 53 -50 77 -11 24 -28 44 -36 44 -9 0 -23 5 -31 10 -11 8
-8 9 13 4 30 -7 33 1 16 40 -9 19 -9 29 0 40 9 11 9 16 0 22 -7 4 -9 3 -5 -4
9 -15 -5 -21 -29 -11 -18 7 -19 8 -1 8 14 1 17 6 12 24 -3 12 -6 30 -6 40 0
10 -10 22 -22 27 -19 7 -20 9 -5 9 14 1 17 6 12 22 -12 36 -12 94 -1 101 7 5
5 8 -4 8 -11 0 -15 12 -15 45 0 29 4 45 13 45 6 0 13 -10 13 -22 1 -22 2 -27
8 -53 2 -5 4 -23 4 -40 2 -23 7 -30 21 -28 16 1 17 -1 4 -14 -9 -8 -13 -25
-10 -39 4 -21 7 -23 20 -12 14 11 14 10 0 -12 -14 -22 -15 -30 -3 -65 7 -22
16 -57 19 -77 4 -21 11 -38 16 -38 6 0 10 -5 10 -11 0 -6 -8 -8 -17 -5 -16 5
-16 5 -2 -6 9 -7 23 -27 32 -44 9 -17 23 -34 32 -38 13 -5 14 -2 4 15 -6 11
-8 27 -5 35 3 8 2 13 -3 10 -16 -10 -24 232 -11 324 6 46 14 88 16 92 2 3 -4
13 -14 20 -45 33 -62 69 -62 132 0 141 61 226 163 226 80 0 127 -60 127 -163
0 -96 -69 -185 -156 -201 -27 -6 -32 -12 -38 -44 -14 -83 -17 -241 -7 -312 6
-41 11 -87 11 -102 -1 -45 26 -34 34 12 4 23 11 38 16 35 7 -4 7 3 0 19 -6 17
-6 26 0 26 5 0 12 11 16 25 9 35 29 26 29 -13 0 -19 -4 -31 -11 -28 -7 3 -10
-10 -9 -32 0 -22 -10 -57 -27 -89 l-28 -54 25 -88 c31 -111 123 -341 136 -341
7 0 38 70 62 140 9 25 28 77 42 115 15 39 28 77 30 85 3 8 9 33 15 55 66 244
69 268 36 334 -15 28 -31 51 -36 51 -5 0 -7 7 -4 15 7 17 -14 48 -26 40 -5 -3
-12 0 -16 6 -4 7 -3 9 4 5 18 -11 25 13 10 37 -8 12 -14 38 -14 59 1 20 -3 36
-9 35 -5 -1 -9 6 -7 16 2 10 -4 30 -13 44 -16 24 -16 24 1 15 13 -7 25 -6 43
5 23 13 24 13 8 0 -22 -18 -14 -72 9 -63 8 3 14 1 14 -4 0 -6 -4 -10 -10 -10
-5 0 -10 -13 -10 -30 0 -32 16 -39 40 -17 8 6 7 3 -3 -9 -22 -26 -22 -50 1
-63 10 -6 12 -11 4 -11 -9 0 -10 -5 -2 -19 5 -11 7 -28 3 -38 -7 -17 -6 -17
11 0 21 20 33 23 17 3 -14 -16 -5 -43 18 -55 19 -11 17 -25 27 245 6 158 4
209 -11 295 -9 57 -19 106 -21 108 -1 2 -24 7 -50 12 -26 5 -78 29 -121 56
-82 53 -117 98 -140 187 -16 60 -18 225 -3 240 5 5 10 16 10 24 0 8 14 32 31
53 71 90 143 111 259 77z m-109 -770 c0 -7 1 -34 2 -60 2 -28 -2 -48 -8 -48
-7 0 -7 -3 1 -8 5 -4 11 -29 13 -56 2 -45 1 -48 -13 -37 -10 8 -16 29 -16 53
0 31 -5 40 -22 48 -18 7 -19 9 -5 9 20 1 25 51 5 52 -10 0 -10 2 0 6 6 2 12
16 12 29 0 24 30 36 31 12z m-141 -378 c0 -17 5 -30 13 -30 8 0 9 -3 1 -8 -13
-9 -24 -44 -30 -100 -2 -23 -5 -48 -7 -55 -1 -7 6 -11 15 -11 10 1 15 -2 12
-7 -7 -12 -44 -11 -44 1 0 6 -3 9 -7 9 -19 -3 -27 2 -15 9 7 5 14 28 16 53 2
24 7 56 11 72 5 18 2 33 -6 44 -10 12 -10 15 -1 9 8 -5 12 -1 12 12 0 10 3 22
7 25 14 15 23 6 23 -23z m369 -1377 c-24 -26 -64 -57 -90 -70 -35 -18 -48 -31
-52 -53 -5 -20 -16 -34 -41 -45 -20 -9 -39 -29 -46 -46 -7 -16 -16 -29 -19
-29 -17 0 -51 -43 -51 -65 0 -19 -10 -30 -49 -50 -53 -26 -91 -67 -91 -96 0
-11 -4 -19 -9 -19 -4 0 -29 -19 -55 -41 -26 -23 -49 -40 -51 -37 -9 8 22 126
40 155 62 96 95 134 149 171 253 171 329 223 358 246 51 40 55 31 7 -21z
m-543 -405 c-28 -55 -31 -73 -33 -158 -1 -84 0 -93 13 -76 8 11 14 26 14 33 0
7 5 13 10 13 6 0 10 5 10 11 0 13 52 62 93 86 19 12 27 26 27 44 0 26 42 69
68 69 9 0 14 -57 28 -302 l7 -117 -24 -5 c-65 -14 -460 -76 -487 -76 -17 0
-32 5 -34 11 -3 10 116 463 135 512 5 15 20 17 105 17 l99 0 -31 -62z m757
-11 c9 -34 34 -125 55 -202 63 -224 67 -244 56 -255 -12 -12 -536 67 -545 82
-7 10 -5 54 12 266 5 68 9 134 9 147 0 30 4 31 220 27 l175 -3 18 -62z m943
-1722 c141 -133 150 -141 179 -147 21 -4 11 -10 -99 -57 -60 -26 -64 -26 -41
-1 18 20 18 21 -12 52 l-32 31 -58 -25 c-56 -24 -58 -26 -58 -64 0 -37 2 -39
35 -44 l34 -5 -62 -27 c-45 -19 -62 -23 -62 -13 0 7 6 15 13 17 9 4 13 56 15
207 2 111 8 201 12 199 5 -2 66 -57 136 -123z m-2910 49 c202 -65 244 -92 244
-157 0 -21 -5 -47 -10 -58 -12 -21 -64 -52 -73 -43 -3 3 -10 3 -15 0 -12 -7
42 -186 60 -197 28 -17 -2 -18 -53 -1 l-54 19 -33 102 c-20 61 -38 101 -45 98
-6 -2 -20 -32 -31 -66 -20 -62 -20 -63 -1 -77 34 -25 10 -24 -66 1 -107 36
-109 37 -74 44 28 6 32 13 77 141 50 146 56 178 33 186 -8 4 -15 10 -15 15 0
11 -2 12 56 -7z m2545 -61 c50 -29 55 -88 12 -135 -15 -17 -14 -18 15 -18 48
0 87 -39 87 -88 0 -70 -45 -101 -222 -155 -46 -14 -83 -22 -83 -17 0 4 7 10
15 14 23 8 19 37 -31 192 -49 158 -52 161 -116 128 -35 -18 -35 -12 1 -212 22
-126 25 -132 51 -132 10 0 21 -4 24 -8 3 -5 -27 -15 -67 -21 -40 -7 -83 -15
-97 -18 l-25 -6 23 22 c13 13 21 30 18 39 -2 9 -15 75 -27 146 -15 85 -25 122
-30 110 -4 -10 -22 -88 -40 -171 -18 -89 -36 -153 -43 -152 -8 0 -99 131 -193
278 -12 18 -7 -23 16 -139 25 -129 28 -136 56 -149 l30 -15 -25 -6 c-14 -4
-43 -10 -65 -14 l-40 -7 24 19 24 19 -22 129 c-29 166 -38 194 -61 194 -10 0
-21 4 -24 9 -5 8 97 31 135 31 8 0 45 -47 84 -105 38 -58 72 -105 75 -105 4 0
17 56 30 125 17 91 28 126 39 129 9 3 43 10 76 16 33 6 69 15 80 20 47 20 212
68 238 69 16 1 42 -7 58 -16z m-2113 -68 c79 -17 108 -35 57 -35 -19 0 -26 -7
-31 -27 -3 -16 -19 -81 -35 -145 -35 -141 -35 -151 -6 -172 12 -10 15 -15 7
-13 -8 2 -52 12 -97 22 -80 17 -109 35 -58 35 27 0 26 -3 70 182 31 132 31
141 3 162 -13 10 -16 15 -8 13 8 -2 52 -12 98 -22z m384 -79 c61 -30 92 -80
96 -157 3 -52 0 -74 -17 -106 -43 -86 -125 -124 -220 -105 -64 14 -91 30 -128
78 -23 31 -28 49 -31 108 -4 89 15 127 84 174 46 32 54 34 114 30 36 -2 82
-12 102 -22z m346 -25 c54 -7 80 -15 97 -31 47 -44 39 -113 -15 -133 -31 -12
-40 -27 -16 -27 8 0 27 -11 42 -24 51 -43 33 -115 -38 -152 -29 -15 -140 -17
-238 -5 -46 5 -51 8 -29 14 24 6 27 12 32 74 4 38 7 114 7 171 0 82 -3 102
-14 102 -8 0 -18 5 -21 10 -8 12 90 13 193 1z m452 -157 c47 -91 95 -174 108
-184 12 -10 19 -21 14 -23 -12 -8 -161 -11 -169 -4 -3 4 1 7 10 7 25 0 29 16
10 54 -16 36 -17 36 -79 36 -66 0 -77 -7 -88 -52 -5 -23 -2 -30 21 -41 26 -14
25 -14 -33 -19 -32 -3 -61 -4 -63 -2 -2 2 6 11 18 21 13 11 41 72 71 153 28
74 57 154 66 178 9 23 19 42 22 42 4 0 45 -75 92 -166z"/>
<path d="M4540 9080 l0 -80 33 0 c53 0 77 24 77 75 0 54 -28 85 -77 85 l-33 0
0 -80z"/>
<path d="M5278 9126 c-28 -21 -56 -95 -63 -167 -6 -55 -4 -74 13 -112 17 -39
26 -47 56 -53 68 -12 108 37 127 160 13 76 3 133 -27 163 -26 26 -78 31 -106
9z"/>
<path d="M5750 9017 c-6 -23 -15 -57 -20 -76 -12 -44 -7 -51 40 -51 46 0 80
35 80 84 0 41 -9 52 -52 71 l-37 15 -11 -43z"/>
<path d="M3720 9019 c0 -30 37 -142 48 -146 18 -8 52 26 52 52 0 36 -21 85
-40 95 -25 13 -60 13 -60 -1z"/>
<path d="M2392 8407 c-32 -34 -29 -87 10 -159 34 -63 93 -122 134 -132 62 -16
113 45 94 112 -13 52 -80 154 -118 180 -40 29 -92 29 -120 -1z"/>
<path d="M4155 8131 c-70 -33 -123 -91 -262 -287 -79 -112 -160 -191 -348
-345 -161 -132 -163 -134 -141 -157 31 -35 21 -68 -68 -212 -72 -116 -56 -162
27 -77 23 23 83 74 132 112 164 127 375 345 375 386 0 8 -15 21 -33 29 -38 18
-38 39 -1 85 13 17 49 65 79 107 66 92 117 138 151 138 34 0 41 -25 20 -79 -9
-25 -37 -106 -61 -178 -63 -190 -91 -238 -210 -355 -56 -54 -115 -122 -133
-151 -34 -57 -65 -161 -56 -189 8 -25 45 -23 87 7 61 41 208 115 228 115 42 0
32 -66 -22 -140 -24 -33 -50 -51 -115 -82 -62 -29 -91 -48 -105 -71 -10 -18
-19 -35 -19 -39 0 -18 35 -38 65 -38 29 0 42 10 94 68 80 89 138 166 167 223
13 26 47 78 75 116 151 200 243 287 377 354 35 17 66 39 69 47 4 8 1 29 -6 46
-7 17 -22 66 -32 109 -22 88 -27 101 -76 174 -26 37 -33 57 -28 73 6 19 12 21
38 16 35 -7 52 -24 111 -104 21 -29 41 -51 43 -48 8 7 -60 125 -111 193 -54
72 -136 150 -171 163 -40 15 -96 12 -140 -9z"/>
<path d="M4793 7918 c-17 -6 -44 -23 -59 -39 l-27 -28 12 -114 c15 -145 11
-167 -85 -387 -36 -85 -42 -93 -95 -133 -64 -49 -109 -70 -147 -69 -36 2 -43
-4 -124 -98 -26 -30 -48 -62 -48 -71 0 -8 14 -26 32 -39 l32 -24 86 91 c95
101 118 117 160 108 47 -10 47 -55 -1 -79 -13 -6 -33 -26 -44 -45 -11 -18 -41
-57 -66 -86 -113 -128 -78 -192 111 -202 108 -6 191 11 345 71 140 55 192 60
232 20 62 -62 121 -78 186 -50 42 18 77 56 107 119 22 45 29 52 58 55 27 3 48
-7 105 -46 40 -27 128 -84 197 -127 69 -43 128 -83 132 -89 4 -6 4 -30 1 -53
l-6 -43 47 0 c58 0 61 19 11 70 -38 39 -39 64 -3 76 14 4 40 -8 87 -39 156
-104 191 -109 270 -42 75 64 89 61 181 -34 68 -69 118 -100 134 -83 26 25
-169 210 -349 332 -77 51 -162 112 -190 133 -197 155 -374 358 -515 591 -62
101 -125 175 -176 207 -48 29 -112 22 -162 -18 -65 -53 -45 -105 24 -62 22 13
41 18 55 14 38 -12 197 -174 255 -260 58 -85 65 -118 32 -139 -31 -19 -70 6
-138 91 -36 45 -70 82 -77 83 -7 0 -23 -11 -37 -25 -34 -34 -60 -31 -109 10
-23 20 -46 34 -51 32 -6 -2 -21 -23 -34 -48 -57 -105 -75 -130 -143 -205 -39
-43 -93 -110 -119 -149 -26 -38 -69 -94 -95 -123 -38 -42 -53 -52 -74 -50 -23
3 -26 8 -29 45 -4 61 42 151 122 241 75 82 100 124 91 153 -4 10 -33 37 -65
59 -64 43 -84 81 -74 137 6 31 35 63 59 63 5 0 39 -27 73 -61 35 -33 79 -67
98 -75 31 -13 39 -13 68 1 52 25 71 51 71 99 0 35 -11 57 -74 149 -41 59 -96
128 -122 152 -51 48 -73 53 -136 33z m914 -680 c17 -18 54 -62 82 -98 62 -79
166 -169 203 -177 33 -6 138 -124 138 -154 0 -25 -38 -40 -65 -26 -11 5 -38
25 -59 43 -22 19 -55 37 -74 40 -23 4 -40 16 -51 35 -10 16 -39 44 -64 62 -25
18 -58 51 -73 72 -15 22 -55 70 -90 108 -35 37 -64 73 -64 79 0 21 33 48 60
48 16 0 37 -12 57 -32z"/>
<path d="M3130 7153 c-62 -59 -130 -137 -173 -198 -97 -139 -100 -141 -212
-195 -112 -54 -187 -111 -169 -130 8 -8 24 -2 61 24 27 19 78 48 113 66 35 18
95 62 135 100 76 72 115 91 140 70 31 -26 18 -67 -39 -123 -74 -73 -96 -117
-58 -117 42 0 111 60 187 162 43 56 80 108 82 114 9 25 -19 25 -52 0 -40 -31
-51 -32 -64 -8 -18 34 33 134 135 259 24 30 44 58 44 63 0 27 -37 1 -130 -87z"/>
<path d="M7792 7933 c-47 -23 -129 -117 -144 -165 -14 -48 1 -85 45 -106 23
-11 33 -10 77 9 61 26 146 116 160 170 24 88 -48 137 -138 92z"/>
<path d="M8385 7236 c-94 -29 -185 -113 -185 -170 0 -83 71 -108 166 -60 128
65 183 151 133 206 -30 33 -63 40 -114 24z"/>
<path d="M2996 5498 c-33 -53 -55 -411 -33 -541 16 -92 -8 -87 445 -87 367 0
400 1 415 18 23 25 40 195 32 321 -11 177 -25 274 -42 293 -15 17 -46 18 -409
18 l-394 0 -14 -22z"/>
<path d="M3300 4813 c0 -5 12 -44 26 -88 24 -75 25 -84 14 -156 l-12 -76 -74
-6 c-144 -13 -209 -41 -162 -71 84 -54 568 -50 634 5 33 28 -36 54 -170 66
-50 4 -77 11 -80 20 -3 7 -8 42 -12 77 -6 60 7 130 42 221 5 13 -9 15 -100 15
-58 0 -106 -3 -106 -7z"/>
<path d="M3404 3835 c-15 -23 -15 -27 0 -50 19 -30 46 -32 69 -7 22 24 21 45
-1 65 -26 24 -49 21 -68 -8z"/>
<path d="M3215 3821 c-45 -28 -198 -189 -190 -201 12 -19 31 -10 80 40 57 58
80 67 36 13 -16 -20 -28 -40 -25 -45 6 -10 34 -11 34 0 0 4 12 15 26 26 25 18
25 18 13 -3 -17 -27 -4 -39 20 -17 17 16 19 16 24 -4 5 -19 8 -20 26 -8 16 10
31 10 78 -2 l58 -15 3 -77 c2 -45 -1 -78 -7 -78 -14 0 -61 59 -61 76 0 8 10
19 23 24 19 8 17 9 -13 7 -28 -2 -36 -6 -38 -26 -3 -17 9 -36 47 -72 45 -43
67 -89 43 -89 -14 0 -58 -43 -72 -69 -17 -33 1 -98 50 -175 47 -74 49 -103 15
-170 -37 -73 -32 -118 18 -173 l20 -22 -31 -26 c-36 -30 -49 -79 -34 -122 10
-27 10 -26 11 15 1 44 24 102 41 102 6 0 10 -56 10 -142 0 -78 3 -139 6 -135
7 7 11 64 13 190 0 58 5 97 11 97 16 0 50 -62 50 -90 0 -14 -9 -43 -19 -63
-29 -57 -34 -75 -12 -47 61 77 64 149 9 196 -31 25 -31 27 -13 40 30 22 55 67
55 100 0 17 -13 56 -30 87 -30 57 -38 101 -21 112 19 11 74 119 82 159 9 50
-10 97 -52 127 -16 11 -29 24 -29 29 0 5 25 33 55 63 38 37 55 62 55 79 0 28
-28 42 -58 30 -14 -5 -12 -7 7 -12 14 -3 26 -11 28 -17 4 -12 -54 -83 -68 -83
-6 0 -9 34 -7 77 l3 78 60 16 c45 12 65 13 78 5 13 -8 20 -8 27 3 7 12 11 13
25 1 11 -9 19 -10 26 -3 8 8 7 13 0 17 -6 4 -11 12 -11 18 0 7 13 0 28 -15 15
-15 33 -27 40 -27 21 0 13 25 -18 55 -16 16 -27 31 -25 34 3 3 30 -19 59 -48
36 -36 60 -52 70 -48 9 4 16 10 16 15 0 4 -47 54 -104 110 -92 91 -107 102
-139 102 -68 0 -116 -65 -97 -131 7 -25 6 -29 -11 -29 -12 0 -19 7 -19 20 0
17 -7 20 -50 20 -43 0 -50 -3 -50 -20 0 -11 -6 -20 -13 -20 -10 0 -13 15 -13
51 1 45 -3 54 -32 80 -38 34 -74 37 -117 10z m189 -553 c3 -50 6 -107 6 -127
l0 -36 -20 25 c-28 36 -53 117 -46 151 6 31 34 79 46 79 4 0 10 -41 14 -92z
m108 52 c10 -19 18 -45 18 -57 0 -32 -38 -129 -57 -145 -15 -12 -16 -7 -10 57
4 39 7 96 7 128 0 67 12 71 42 17z m-28 -391 c10 -24 14 -53 11 -68 -6 -27
-41 -80 -47 -71 -7 11 4 180 12 180 4 0 15 -19 24 -41z m-72 -122 c-6 -13 -32
42 -32 68 0 12 6 37 13 56 12 33 12 33 18 -41 3 -41 3 -79 1 -83z"/>
<path d="M3402 2425 c0 -16 2 -22 5 -12 2 9 2 23 0 30 -3 6 -5 -1 -5 -18z"/>
<path d="M3442 2425 c0 -16 2 -22 5 -12 2 9 2 23 0 30 -3 6 -5 -1 -5 -18z"/>
<path d="M8923 5670 c-86 -17 -133 -57 -133 -111 0 -70 73 -101 189 -80 126
23 177 75 146 147 -8 20 -25 38 -40 44 -31 12 -102 11 -162 0z"/>
<path d="M5070 5679 c0 -5 5 -7 10 -4 6 3 10 8 10 11 0 2 -4 4 -10 4 -5 0 -10
-5 -10 -11z"/>
<path d="M5110 5674 c0 -8 5 -12 10 -9 6 4 8 11 5 16 -9 14 -15 11 -15 -7z"/>
<path d="M4935 5650 c-3 -5 -1 -10 4 -10 6 0 11 5 11 10 0 6 -2 10 -4 10 -3 0
-8 -4 -11 -10z"/>
<path d="M5185 5640 c3 -5 8 -10 11 -10 2 0 4 5 4 10 0 6 -5 10 -11 10 -5 0
-7 -4 -4 -10z"/>
<path d="M5162 5620 c12 -19 28 -27 28 -14 0 7 -27 34 -34 34 -4 0 -1 -9 6
-20z"/>
<path d="M4961 5604 c0 -11 3 -14 6 -6 3 7 2 16 -1 19 -3 4 -6 -2 -5 -13z"/>
<path d="M4895 5600 c-3 -5 -1 -10 4 -10 6 0 11 5 11 10 0 6 -2 10 -4 10 -3 0
-8 -4 -11 -10z"/>
<path d="M5226 5565 c-3 -8 -1 -15 4 -15 6 0 10 7 10 15 0 8 -2 15 -4 15 -2 0
-6 -7 -10 -15z"/>
<path d="M4881 5524 c0 -11 3 -14 6 -6 3 7 2 16 -1 19 -3 4 -6 -2 -5 -13z"/>
<path d="M4852 5500 c0 -19 2 -27 5 -17 2 9 2 25 0 35 -3 9 -5 1 -5 -18z"/>
<path d="M4880 5491 c0 -5 7 -11 15 -15 8 -3 15 -1 15 3 0 5 -7 11 -15 15 -8
3 -15 1 -15 -3z"/>
<path d="M5182 5480 c0 -14 2 -19 5 -12 2 6 2 18 0 25 -3 6 -5 1 -5 -13z"/>
<path d="M5210 5481 c0 -12 28 -22 35 -12 3 5 -2 12 -11 15 -21 8 -24 8 -24
-3z"/>
<path d="M4851 5354 c0 -11 3 -14 6 -6 3 7 2 16 -1 19 -3 4 -6 -2 -5 -13z"/>
<path d="M4941 5344 c0 -11 3 -14 6 -6 3 7 2 16 -1 19 -3 4 -6 -2 -5 -13z"/>
<path d="M4987 5338 c-9 -31 -2 -33 11 -3 6 14 8 25 3 25 -5 0 -11 -10 -14
-22z"/>
<path d="M5030 5349 c0 -5 5 -7 10 -4 6 3 10 8 10 11 0 2 -4 4 -10 4 -5 0 -10
-5 -10 -11z"/>
<path d="M5065 5339 c-4 -6 -5 -12 -2 -15 2 -3 7 2 10 11 7 17 1 20 -8 4z"/>
<path d="M5275 5330 c-3 -5 -1 -10 4 -10 6 0 11 5 11 10 0 6 -2 10 -4 10 -3 0
-8 -4 -11 -10z"/>
<path d="M4866 5318 c7 -11 34 -10 34 1 0 6 -9 9 -19 8 -11 0 -17 -5 -15 -9z"/>
<path d="M4965 5270 c3 -5 8 -10 11 -10 2 0 4 5 4 10 0 6 -5 10 -11 10 -5 0
-7 -4 -4 -10z"/>
<path d="M4838 4983 c7 -3 16 -2 19 1 4 3 -2 6 -13 5 -11 0 -14 -3 -6 -6z"/>
<path d="M4752 4971 c-9 -5 -4 -8 16 -7 17 1 28 4 25 9 -6 9 -25 9 -41 -2z"/>
<path d="M4890 4930 c0 -5 7 -10 16 -10 8 0 12 5 9 10 -3 6 -10 10 -16 10 -5
0 -9 -4 -9 -10z"/>
<path d="M4710 4915 c-7 -9 -10 -18 -7 -21 3 -3 10 4 17 15 13 25 8 27 -10 6z"/>
<path d="M4922 4890 c0 -14 2 -19 5 -12 2 6 2 18 0 25 -3 6 -5 1 -5 -13z"/>
<path d="M4915 4800 c-3 -5 -1 -10 4 -10 6 0 11 5 11 10 0 6 -2 10 -4 10 -3 0
-8 -4 -11 -10z"/>
<path d="M4800 4189 c0 -5 5 -7 10 -4 6 3 10 8 10 11 0 2 -4 4 -10 4 -5 0 -10
-5 -10 -11z"/>
<path d="M4750 4120 c0 -5 5 -10 11 -10 5 0 7 5 4 10 -3 6 -8 10 -11 10 -2 0
-4 -4 -4 -10z"/>
<path d="M4596 2695 c10 -8 25 -15 33 -15 11 0 9 4 -5 15 -10 8 -25 15 -33 15
-11 0 -9 -4 5 -15z"/>
<path d="M4591 2606 c2 -2 15 -9 29 -16 23 -12 24 -12 11 3 -7 10 -20 17 -29
17 -8 0 -13 -2 -11 -4z"/>
<path d="M4560 2495 c14 -8 32 -14 40 -14 8 0 0 6 -19 14 -42 19 -54 19 -21 0z"/>
<path d="M4713 2473 c9 -2 23 -2 30 0 6 3 -1 5 -18 5 -16 0 -22 -2 -12 -5z"/>
<path d="M6290 950 c0 -33 2 -60 4 -60 2 0 25 10 52 21 l48 22 -43 38 c-24 22
-47 39 -52 39 -5 0 -9 -27 -9 -60z"/>
<path d="M3552 958 c-12 -40 -18 -76 -14 -80 5 -5 26 -9 47 -10 50 -2 75 27
75 87 0 39 -3 44 -34 59 -19 9 -38 16 -43 16 -4 0 -18 -33 -31 -72z"/>
<path d="M5908 993 c-10 -2 -18 -8 -18 -12 0 -18 43 -131 50 -131 4 0 19 9 34
21 19 15 26 30 26 54 0 24 -7 39 -26 54 -27 21 -34 23 -66 14z"/>
<path d="M5946 821 c-7 -11 34 -134 47 -142 29 -19 77 25 77 72 0 44 -35 79
-80 79 -21 0 -41 -4 -44 -9z"/>
<path d="M4192 864 c-41 -29 -65 -92 -70 -184 -4 -82 -3 -87 23 -118 20 -24
35 -32 59 -32 70 0 116 89 116 223 0 62 -3 71 -29 98 -33 32 -65 37 -99 13z"/>
<path d="M4605 797 c-4 -18 -5 -51 -3 -72 3 -37 5 -40 32 -38 37 3 54 19 62
58 7 38 -26 85 -61 85 -19 0 -25 -7 -30 -33z"/>
<path d="M4598 594 c-5 -88 -3 -94 38 -94 88 0 86 139 -3 156 l-31 6 -4 -68z"/>
<path d="M4977 671 c-9 -27 -17 -54 -17 -60 0 -12 41 -14 77 -5 l22 6 -27 54
c-14 30 -29 54 -32 54 -3 0 -13 -22 -23 -49z"/>
</g>
</svg>
