<?xml version="1.0" standalone="no"?>
<!DOCTYPE svg PUBLIC "-//W3C//DTD SVG 20010904//EN"
 "http://www.w3.org/TR/2001/REC-SVG-20010904/DTD/svg10.dtd">
<svg version="1.0" xmlns="http://www.w3.org/2000/svg"
 width="200" height="200" viewBox="0 0 1013.000000 317.000000"
 preserveAspectRatio="xMidYMid meet">

<g transform="translate(0.000000,317.000000) scale(0.100000,-0.100000)"
fill="#000000" stroke="none">
<path d="M5630 1585 l0 -1565 35 0 35 0 0 1565 0 1565 -35 0 -35 0 0 -1565z"/>
<path d="M6118 2405 c-3 -3 -4 -133 -2 -288 l3 -282 31 -3 30 -3 1 248 1 248
81 -248 81 -248 35 3 36 3 80 240 80 240 3 -242 2 -243 35 0 35 0 0 290 0 290
-54 0 -55 0 -78 -240 c-43 -131 -80 -239 -83 -239 -3 -1 -39 107 -80 239 l-75
240 -51 0 c-28 0 -53 -2 -56 -5z"/>
<path d="M6770 2377 c0 -29 4 -35 24 -39 35 -7 48 5 44 38 -2 25 -8 29 -35 32
-31 3 -33 2 -33 -31z"/>
<path d="M7402 2373 c3 -35 6 -38 33 -38 27 0 30 3 33 38 3 37 3 37 -33 37
-36 0 -36 0 -33 -37z"/>
<path d="M8900 2376 c0 -33 13 -46 46 -46 10 0 14 12 14 40 0 38 -2 40 -30 40
-27 0 -30 -3 -30 -34z"/>
<path d="M7988 2313 c-3 -57 -3 -58 -35 -61 -27 -3 -33 -7 -33 -28 0 -21 5
-24 35 -24 l35 0 0 -169 c0 -199 1 -201 86 -201 53 0 54 0 54 30 0 27 -3 30
-34 30 -22 0 -36 6 -40 16 -3 9 -6 78 -6 155 l0 139 40 0 c36 0 40 3 40 25 0
23 -4 25 -40 25 l-40 0 0 60 c0 60 0 60 -30 60 -28 0 -29 -1 -32 -57z"/>
<path d="M2597 2275 c-83 -31 -160 -104 -200 -193 -33 -72 -30 -198 5 -274
103 -222 376 -274 543 -102 166 171 115 452 -100 555 -50 24 -72 29 -135 28
-41 0 -92 -7 -113 -14z"/>
<path d="M3400 2277 c-93 -32 -159 -93 -203 -186 -57 -120 -38 -259 49 -365
119 -146 346 -160 478 -29 77 76 106 146 106 256 0 129 -70 244 -187 302 -47
24 -72 30 -133 32 -41 1 -91 -4 -110 -10z"/>
<path d="M4154 2261 c-79 -37 -129 -88 -167 -170 -80 -171 -4 -379 168 -458
45 -20 72 -25 128 -25 113 1 199 42 266 126 78 98 94 255 37 368 -80 163 -274
234 -432 159z"/>
<path d="M4980 2276 c-121 -40 -207 -141 -231 -271 -12 -64 2 -158 31 -215 25
-50 99 -124 147 -148 89 -46 216 -46 303 -2 54 28 120 99 149 160 37 79 41
193 10 274 -30 82 -113 166 -192 195 -64 23 -159 27 -217 7z"/>
<path d="M7665 2261 c-94 -23 -132 -102 -85 -178 15 -25 31 -36 77 -48 116
-33 151 -46 157 -61 20 -53 -21 -94 -94 -94 -53 0 -94 25 -104 63 -8 32 -66
37 -66 5 0 -130 229 -178 313 -65 22 29 25 104 6 136 -17 25 -64 47 -146 66
-36 9 -73 20 -80 26 -17 15 -17 63 0 78 41 33 140 18 159 -25 8 -17 19 -24 41
-24 28 0 29 2 23 32 -7 37 -21 55 -55 72 -34 18 -109 26 -146 17z"/>
<path d="M8316 2260 c-49 -9 -110 -71 -125 -126 -17 -61 -13 -163 8 -209 35
-79 102 -113 198 -102 51 5 88 29 121 77 31 46 29 67 -8 68 -24 0 -33 -5 -45
-32 -18 -37 -51 -56 -95 -56 -66 0 -106 35 -117 104 l-6 36 129 0 c71 0 140 3
153 7 22 6 23 9 17 60 -10 89 -48 142 -120 170 -35 13 -55 14 -110 3z m117
-72 c10 -5 25 -25 33 -43 27 -65 26 -65 -101 -65 -128 0 -128 0 -100 66 24 57
103 77 168 42z"/>
<path d="M9206 2263 c-91 -15 -147 -98 -148 -217 0 -111 32 -173 107 -207 92
-42 205 -12 251 67 46 79 43 216 -7 286 -37 52 -128 83 -203 71z m121 -79 c32
-20 53 -77 53 -140 0 -115 -51 -172 -146 -161 -57 6 -87 35 -105 99 -14 55 -3
140 24 175 11 15 22 30 23 32 2 2 18 7 36 11 39 10 85 3 115 -16z"/>
<path d="M7063 2241 c-17 -11 -36 -28 -42 -38 -9 -15 -10 -13 -11 15 0 29 -3
32 -30 32 l-30 0 0 -210 0 -210 30 0 30 0 0 128 c0 199 17 233 119 240 87 6
91 -2 91 -205 l0 -163 35 0 35 0 0 166 c0 190 -10 227 -66 250 -48 20 -123 18
-161 -5z"/>
<path d="M8749 2237 c-15 -12 -32 -31 -38 -42 -9 -17 -10 -15 -11 18 0 36 -1
37 -35 37 l-35 0 2 -207 3 -208 33 -3 32 -3 0 139 c0 128 2 142 23 173 17 25
33 36 65 43 39 9 42 12 42 43 0 29 -3 33 -27 33 -16 0 -40 -10 -54 -23z"/>
<path d="M6770 2040 l0 -211 33 3 32 3 0 205 0 205 -32 3 -33 3 0 -211z"/>
<path d="M7400 2040 l0 -210 35 0 35 0 0 210 0 210 -35 0 -35 0 0 -210z"/>
<path d="M8900 2040 l0 -210 30 0 30 0 0 210 0 210 -30 0 -30 0 0 -210z"/>
<path d="M6400 1424 l0 -107 -22 20 c-57 52 -140 59 -200 18 -61 -41 -81 -86
-86 -186 -4 -79 -2 -91 22 -135 37 -68 82 -97 150 -97 50 0 116 26 116 45 0 4
5 8 10 8 6 0 10 -9 10 -20 0 -16 7 -20 35 -20 l35 0 -2 288 -3 287 -32 3 -33
3 0 -107z m-49 -127 c74 -50 74 -214 0 -281 -26 -23 -97 -27 -134 -7 -82 44
-80 257 3 298 39 20 93 16 131 -10z"/>
<path d="M7020 1240 l0 -290 30 0 30 0 0 290 0 290 -30 0 -30 0 0 -290z"/>
<path d="M7370 1480 l0 -50 85 0 85 0 0 -240 0 -240 55 0 55 0 2 238 3 237 83
3 82 3 0 49 0 50 -225 0 -225 0 0 -50z"/>
<path d="M8576 1521 c-3 -4 -5 -134 -3 -287 l2 -279 53 -3 c51 -3 52 -2 52 24
l0 28 33 -31 c90 -87 228 -26 257 113 23 109 -4 212 -70 267 -55 47 -139 47
-185 1 -13 -13 -27 -24 -30 -24 -3 0 -5 45 -5 100 l0 100 -49 0 c-28 0 -52 -4
-55 -9z m266 -262 c23 -31 33 -93 24 -144 -22 -113 -160 -113 -181 -1 -11 56
3 125 31 153 34 33 98 30 126 -8z"/>
<path d="M9510 1480 l0 -50 55 0 55 0 0 50 0 50 -55 0 -55 0 0 -50z"/>
<path d="M1850 1496 c-73 -16 -114 -39 -167 -93 -54 -56 -77 -100 -93 -176
-38 -188 84 -371 270 -405 179 -33 347 83 386 266 16 78 6 159 -28 226 -72
142 -219 215 -368 182z"/>
<path d="M2640 1496 c-66 -15 -101 -33 -157 -81 -50 -43 -99 -138 -108 -212
-17 -137 56 -282 174 -346 196 -107 439 7 486 228 16 80 9 145 -25 220 -67
146 -218 224 -370 191z"/>
<path d="M3440 1499 c-185 -36 -307 -216 -270 -401 44 -228 264 -343 475 -249
53 23 123 95 154 156 77 154 22 354 -124 447 -68 44 -158 62 -235 47z"/>
<path d="M4176 1484 c-77 -28 -159 -107 -192 -184 -77 -179 10 -394 186 -460
79 -30 193 -26 262 9 65 33 126 96 157 161 39 83 42 208 8 284 -35 76 -100
143 -172 177 -50 24 -72 29 -135 28 -41 0 -93 -7 -114 -15z"/>
<path d="M8001 1376 c-18 -7 -44 -25 -57 -42 l-24 -29 0 38 c0 36 -1 37 -34
37 -69 0 -66 10 -66 -222 l0 -209 53 3 52 3 5 138 c5 131 6 140 29 158 14 11
39 19 62 19 l39 0 0 60 c0 65 -2 67 -59 46z"/>
<path d="M8214 1379 c-44 -13 -96 -73 -92 -107 3 -24 7 -27 46 -28 36 -1 45 3
52 21 10 27 29 35 79 35 42 0 61 -14 61 -46 0 -25 -29 -39 -100 -49 -77 -12
-129 -40 -145 -79 -19 -45 -19 -76 1 -125 16 -42 60 -71 106 -71 40 0 94 19
113 40 23 25 35 25 35 0 0 -18 7 -20 60 -20 58 0 70 6 51 26 -5 5 -11 85 -13
177 l-3 169 -28 23 c-47 41 -146 56 -223 34z m146 -275 c-9 -58 -37 -84 -89
-84 -46 0 -61 14 -61 57 0 18 1 33 3 33 1 0 34 11 72 24 39 13 73 22 76 20 3
-2 3 -25 -1 -50z"/>
<path d="M9132 1369 c-49 -24 -69 -50 -74 -94 -3 -29 -1 -30 37 -32 45 -2 55
2 71 32 8 15 23 21 58 23 53 4 76 -9 76 -43 0 -27 -12 -33 -104 -51 -117 -23
-156 -58 -156 -142 0 -103 73 -153 179 -122 19 5 45 20 58 32 l24 22 6 -22 c5
-20 12 -22 64 -22 57 0 69 6 50 26 -5 5 -11 82 -13 172 l-3 164 -32 28 c-59
53 -166 66 -241 29z m168 -253 c0 -59 -34 -96 -87 -96 -45 0 -58 7 -67 37 -11
35 10 61 57 73 23 6 51 15 62 20 33 14 35 12 35 -34z"/>
<path d="M9837 1375 c-85 -30 -127 -99 -129 -209 -1 -119 39 -185 134 -221 87
-32 187 -5 241 67 67 88 59 248 -16 319 -56 54 -151 73 -230 44z m139 -100
c43 -28 52 -139 18 -207 -26 -51 -103 -55 -146 -8 -25 27 -28 38 -28 99 0 55
4 74 21 95 37 47 84 54 135 21z"/>
<path d="M6652 1353 c-78 -51 -111 -172 -78 -285 35 -120 167 -172 272 -107
40 24 50 36 69 82 l15 37 -32 0 c-26 0 -37 -6 -50 -30 -25 -43 -77 -64 -128
-50 -45 12 -75 48 -85 103 l-7 37 152 0 152 0 -4 58 c-9 116 -64 173 -172 180
-53 3 -66 0 -104 -25z m145 -39 c28 -8 63 -62 63 -98 l0 -26 -115 0 c-85 0
-115 3 -115 13 1 24 38 95 57 106 20 12 76 14 110 5z"/>
<path d="M9523 1373 c-10 -4 -13 -63 -13 -254 l0 -249 -25 -6 c-22 -5 -25 -12
-25 -50 0 -44 0 -44 35 -44 52 0 103 25 115 55 12 30 14 544 3 546 -23 5 -80
5 -90 2z"/>
</g>
</svg>
