<?xml version="1.0" encoding="UTF-8" standalone="no"?>
<svg
   xmlns:dc="http://purl.org/dc/elements/1.1/"
   xmlns:cc="http://creativecommons.org/ns#"
   xmlns:rdf="http://www.w3.org/1999/02/22-rdf-syntax-ns#"
   xmlns:svg="http://www.w3.org/2000/svg"
   xmlns="http://www.w3.org/2000/svg"
   viewBox="0 0 1014.6667 540"
   height="540"
   width="1014.6667"
   xml:space="preserve"
   id="svg2"
   version="1.1"><metadata
     id="metadata8"><rdf:RDF><cc:Work
         rdf:about=""><dc:format>image/svg+xml</dc:format><dc:type
           rdf:resource="http://purl.org/dc/dcmitype/StillImage" /></cc:Work></rdf:RDF></metadata><defs
     id="defs6" /><g
     transform="matrix(1.3333333,0,0,-1.3333333,0,540)"
     id="g10"><g
       transform="scale(0.1)"
       id="g12"><path
         id="path14"
         style="fill:#f0dd00;fill-opacity:1;fill-rule:evenodd;stroke:none"
         d="m 264.145,3399.73 c 140.437,0 254.281,-116.78 254.281,-260.84 0,-144.06 -113.844,-260.84 -254.281,-260.84 -140.434,0 -254.27781,116.78 -254.27781,260.84 0,144.06 113.84381,260.84 254.27781,260.84" /><path
         id="path16"
         style="fill:#f0dd00;fill-opacity:1;fill-rule:evenodd;stroke:none"
         d="m 856.715,3399.73 c 140.433,0 254.275,-116.78 254.275,-260.84 0,-144.06 -113.842,-260.84 -254.275,-260.84 -140.438,0 -254.281,116.78 -254.281,260.84 0,144.06 113.843,260.84 254.281,260.84" /><path
         id="path18"
         style="fill:#f0dd00;fill-opacity:1;fill-rule:evenodd;stroke:none"
         d="m 1449.28,3399.73 c 140.44,0 254.28,-116.78 254.28,-260.84 0,-144.06 -113.84,-260.84 -254.28,-260.84 -140.43,0 -254.28,116.78 -254.28,260.84 0,144.06 113.85,260.84 254.28,260.84" /><path
         id="path20"
         style="fill:#003399;fill-opacity:1;fill-rule:evenodd;stroke:none"
         d="m 2041.85,3399.73 c 140.44,0 254.28,-116.78 254.28,-260.84 0,-144.06 -113.84,-260.84 -254.28,-260.84 -140.44,0 -254.28,116.78 -254.28,260.84 0,144.06 113.84,260.84 254.28,260.84" /><path
         id="path22"
         style="fill:#de2930;fill-opacity:1;fill-rule:evenodd;stroke:none"
         d="m 2634.42,3399.73 c 140.44,0 254.28,-116.78 254.28,-260.84 0,-144.06 -113.84,-260.84 -254.28,-260.84 -140.44,0 -254.28,116.78 -254.28,260.84 0,144.06 113.84,260.84 254.28,260.84" /><path
         id="path24"
         style="fill:#de2930;fill-opacity:1;fill-rule:evenodd;stroke:none"
         d="m 3226.98,3399.73 c 140.44,0 254.29,-116.78 254.29,-260.84 0,-144.06 -113.85,-260.84 -254.29,-260.84 -140.43,0 -254.28,116.78 -254.28,260.84 0,144.06 113.85,260.84 254.28,260.84" /><path
         id="path26"
         style="fill:#de2930;fill-opacity:1;fill-rule:evenodd;stroke:none"
         d="m 3819.55,3399.73 c 140.44,0 254.28,-116.78 254.28,-260.84 0,-144.06 -113.84,-260.84 -254.28,-260.84 -140.44,0 -254.28,116.78 -254.28,260.84 0,144.06 113.84,260.84 254.28,260.84" /><path
         id="path28"
         style="fill:#f0dd00;fill-opacity:1;fill-rule:evenodd;stroke:none"
         d="m 856.715,2808.18 c 140.433,0 254.275,-116.78 254.275,-260.83 0,-144.06 -113.842,-260.84 -254.275,-260.84 -140.438,0 -254.281,116.78 -254.281,260.84 0,144.05 113.843,260.83 254.281,260.83" /><path
         id="path30"
         style="fill:#003399;fill-opacity:1;fill-rule:evenodd;stroke:none"
         d="m 1449.28,2808.18 c 140.44,0 254.28,-116.78 254.28,-260.83 0,-144.06 -113.84,-260.84 -254.28,-260.84 -140.43,0 -254.28,116.78 -254.28,260.84 0,144.05 113.85,260.83 254.28,260.83" /><path
         id="path32"
         style="fill:#003399;fill-opacity:1;fill-rule:evenodd;stroke:none"
         d="m 2041.85,2808.18 c 140.44,0 254.28,-116.78 254.28,-260.83 0,-144.06 -113.84,-260.84 -254.28,-260.84 -140.44,0 -254.28,116.78 -254.28,260.84 0,144.05 113.84,260.83 254.28,260.83" /><path
         id="path34"
         style="fill:#003399;fill-opacity:1;fill-rule:evenodd;stroke:none"
         d="m 2634.42,2808.18 c 140.44,0 254.28,-116.78 254.28,-260.83 0,-144.06 -113.84,-260.84 -254.28,-260.84 -140.44,0 -254.28,116.78 -254.28,260.84 0,144.05 113.84,260.83 254.28,260.83" /><path
         id="path36"
         style="fill:#de2930;fill-opacity:1;fill-rule:evenodd;stroke:none"
         d="m 3226.98,2808.18 c 140.44,0 254.29,-116.78 254.29,-260.83 0,-144.06 -113.85,-260.84 -254.29,-260.84 -140.43,0 -254.28,116.78 -254.28,260.84 0,144.05 113.85,260.83 254.28,260.83" /><path
         id="path38"
         style="fill:#4d4d4d;fill-opacity:1;fill-rule:evenodd;stroke:none"
         d="m 4232.13,4040.16 h 55.89 V 1692.6 h -55.89 v 2347.56" /><path
         id="path40"
         style="fill:#4d4d4d;fill-opacity:1;fill-rule:evenodd;stroke:none"
         d="M 4649.04,3423.31 V 3049.3 h -53.86 v 438.92 h 83.68 l 106.73,-335.85 c 3.09,-9.47 5.38,-16.9 6.88,-22.19 1.39,-5.29 2.49,-9.87 3.29,-13.84 1.6,7.33 3.1,13.95 4.69,19.64 1.5,5.81 3.19,11.3 4.99,16.39 l 110.31,335.85 h 83.99 V 3049.3 h -56.86 v 374.01 c -1.4,-6.41 -2.89,-12.82 -4.68,-19.23 -1.7,-6.51 -3.6,-12.92 -5.49,-19.23 L 4821.99,3049.3 h -55.05 l -108.23,335.55 c -1.99,5.49 -3.69,11.5 -5.28,17.8 -1.6,6.42 -3,13.23 -4.39,20.66 z m 436.87,3.87 v 61.04 h 52.66 v -61.04 z m 0,-377.88 v 319.27 h 52.66 V 3049.3 Z m 341.22,0 v 196.47 c 0,31.33 -4.68,53.11 -14.16,65.11 -9.47,12.01 -25.63,18.01 -48.58,18.01 -29.42,0 -52.26,-8.44 -68.52,-25.44 -16.26,-16.99 -24.33,-41.1 -24.33,-72.34 V 3049.3 h -52.67 v 319.27 h 50.37 v -46.5 c 12.07,18.42 26.33,32.15 42.89,41 16.56,8.96 35.71,13.44 57.55,13.44 23.54,0 43.39,-3.67 59.55,-10.89 16.26,-7.23 28.72,-18.11 37.4,-32.56 4.89,-7.83 8.38,-16.89 10.57,-27.27 2.1,-10.48 3.19,-26.96 3.19,-49.65 v -15.16 -191.68 z m 132.16,377.88 v 61.04 h 52.66 v -61.04 z m 0,-377.88 v 319.27 h 52.66 V 3049.3 Z m 110.82,103.78 h 50.27 c 1.99,-21.67 9.57,-38.06 23.04,-49.25 13.37,-11.09 32.31,-16.69 56.95,-16.69 22.65,0 40.5,4.48 53.56,13.54 13.07,9.05 19.65,21.46 19.65,37.14 0,11.8 -3.19,20.75 -9.67,27.06 -6.48,6.21 -19.15,11.6 -37.91,16.17 l -58.84,15.57 c -33.12,8.15 -56.26,18.93 -69.23,32.26 -12.96,13.42 -19.44,32.55 -19.44,57.38 0,28.18 10.47,50.67 31.41,67.25 20.95,16.59 49.68,24.83 86.08,24.83 37.21,0 66.83,-8.86 88.87,-26.56 22.05,-17.6 33.02,-41.41 33.02,-71.12 v -1.22 H 5867 c -1.2,16.89 -7.98,30.02 -20.35,39.27 -12.36,9.27 -29.22,13.84 -50.47,13.84 -21.34,0 -37.5,-3.76 -48.47,-11.29 -11.08,-7.63 -16.56,-18.62 -16.56,-33.17 0,-10.27 3.49,-18.41 10.37,-24.32 6.98,-5.79 19.85,-10.98 38.8,-15.36 l 50.97,-12.21 c 36.11,-8.75 60.94,-19.94 74.61,-33.47 13.56,-13.64 20.35,-33.07 20.35,-58.3 0,-33.17 -11.47,-58.91 -34.31,-77.33 -22.94,-18.41 -54.96,-27.57 -96.06,-27.57 -40.19,0 -71.02,9.77 -92.56,29.2 -21.55,19.43 -32.61,47.61 -33.21,84.35 z m 380.71,-23.4 c 0,-14.35 2,-23.91 5.99,-28.7 3.99,-4.78 11.27,-7.12 22.04,-7.12 3.1,0 6.79,0.1 11.17,0.31 4.39,0.2 10.08,0.61 17.06,1.22 v -45.59 c -8.78,-1.62 -16.56,-2.74 -23.54,-3.55 -6.88,-0.82 -13.06,-1.23 -18.55,-1.23 -24.64,0 -41.99,4.89 -51.97,14.55 -9.87,9.77 -14.86,27.07 -14.86,51.89 v 214.38 h -46.78 v 42.73 h 46.78 v 89.13 h 52.66 v -89.13 h 56.26 v -42.73 h -56.26 z m 146.53,108.25 h 171.76 c -0.2,29.81 -7.58,52.91 -22.25,69.09 -14.56,16.17 -35.31,24.31 -62.14,24.31 -25.93,0 -46.28,-7.93 -61.24,-23.91 -14.86,-15.87 -23.64,-39.07 -26.13,-69.49 z m 170.56,-85.46 h 52.06 c -5.68,-35.2 -20.65,-62.88 -44.98,-83.13 -24.33,-20.25 -55.06,-30.42 -92.06,-30.42 -43.49,0 -77.8,14.85 -102.93,44.67 -25.14,29.81 -37.71,70.5 -37.71,121.89 0,54.43 12.47,96.96 37.41,127.58 24.93,30.62 59.24,45.89 103.13,45.89 44.98,0 79.79,-14.15 104.43,-42.32 24.64,-28.19 36.9,-67.97 36.9,-119.45 0,-6.52 0,-11.4 -0.1,-14.55 -0.1,-3.16 -0.4,-6.31 -0.69,-9.26 h -225.72 c 0.6,-33.58 8.78,-59.62 24.53,-78.04 15.77,-18.42 37.71,-27.57 65.73,-27.57 21.35,0 39.11,5.6 52.97,16.89 13.96,11.19 22.94,27.16 27.03,47.82 z m 116.6,-103.17 v 319.27 h 50.87 v -57.18 c 8.37,21.37 19.75,37.34 34.11,48.02 14.26,10.59 31.82,15.88 52.67,15.88 3.88,0 6.78,0 8.47,-0.11 1.8,-0.1 3.49,-0.4 5.29,-0.81 v -56.47 c -1.4,0.21 -2.89,0.41 -4.69,0.51 -1.69,0.1 -4.39,0.1 -7.88,0.1 -28.03,0 -49.37,-7.83 -64.13,-23.4 -14.67,-15.57 -22.05,-38.36 -22.05,-68.17 V 3049.3 Z m 198.69,377.88 v 61.04 h 52.66 v -61.04 z m 0,-377.88 v 319.27 h 52.66 V 3049.3 Z m 170.66,160.15 c 0,-39.59 8.28,-69.91 24.93,-90.86 16.66,-20.96 40.5,-31.45 71.42,-31.45 30.72,0 54.26,10.49 70.61,31.45 16.37,20.95 24.54,51.27 24.54,90.86 0,39.26 -8.17,69.48 -24.54,90.44 -16.35,20.96 -39.89,31.44 -70.61,31.44 -31.12,0 -54.96,-10.48 -71.52,-31.34 -16.55,-20.85 -24.83,-51.07 -24.83,-90.54 z m -53.86,0 c 0,53.41 13.06,95.02 39.29,124.83 26.24,29.81 62.94,44.67 110.32,44.67 47.58,0 84.48,-14.86 110.71,-44.57 26.34,-29.7 39.5,-71.32 39.5,-124.93 0,-53.73 -13.06,-95.44 -39.3,-125.25 -26.23,-29.81 -62.93,-44.67 -110.31,-44.67 -47.58,0 -84.48,14.86 -110.71,44.56 -26.34,29.71 -39.5,71.43 -39.5,125.36 z M 4813.61,2547.48 c 0,39.58 -7.87,69.39 -23.54,89.43 -15.65,20.05 -38.89,30.12 -69.62,30.12 -29.62,0 -52.56,-10.99 -68.72,-32.96 -16.16,-21.98 -24.24,-53.12 -24.24,-93.41 0,-36.42 8.28,-65.01 24.94,-85.87 16.66,-20.86 39.5,-31.34 68.52,-31.34 29.43,0 52.27,10.69 68.43,32.16 16.16,21.46 24.23,52.09 24.23,91.87 z m 49.08,277.05 v -438.92 h -50.87 v 40.18 c -13.37,-16.58 -28.63,-29.09 -45.59,-37.44 -16.95,-8.34 -35.6,-12.51 -56.05,-12.51 -41.79,0 -75,15.26 -99.84,45.78 -24.84,30.42 -37.3,71.33 -37.3,122.6 0,52.2 12.46,93.82 37.4,124.74 24.94,30.83 58.15,46.29 99.74,46.29 21.75,0 41.09,-4.06 57.95,-12.3 16.86,-8.25 31.42,-20.66 43.69,-37.14 v 158.72 z m 122.19,-250.29 h 171.75 c -0.2,29.81 -7.58,52.9 -22.24,69.08 -14.56,16.18 -35.31,24.32 -62.14,24.32 -25.93,0 -46.28,-7.94 -61.24,-23.91 -14.87,-15.87 -23.64,-39.07 -26.13,-69.49 z m 170.55,-85.47 h 52.07 c -5.68,-35.2 -20.64,-62.87 -44.98,-83.12 -24.34,-20.25 -55.06,-30.42 -92.06,-30.42 -43.5,0 -77.8,14.85 -102.94,44.66 -25.13,29.81 -37.7,70.51 -37.7,121.89 0,54.43 12.47,96.97 37.4,127.59 24.94,30.62 59.25,45.88 103.14,45.88 44.98,0 79.79,-14.14 104.43,-42.32 24.63,-28.18 36.9,-67.97 36.9,-119.45 0,-6.51 0,-11.39 -0.1,-14.55 -0.1,-3.15 -0.4,-6.3 -0.7,-9.26 h -225.71 c 0.59,-33.57 8.77,-59.62 24.53,-78.03 15.76,-18.42 37.7,-27.57 65.73,-27.57 21.35,0 39.1,5.59 52.96,16.88 13.97,11.19 22.94,27.17 27.03,47.82 z m 117.2,-103.16 v 438.92 h 53.27 v -438.92 z m 392,0 v 360.78 h -127.48 v 78.14 h 342.92 v -78.14 H 5753.2 v -360.78 z m 207.26,0 v 324.15 h 78.9 v -55.45 c 11.07,22.18 24.04,38.56 38.9,48.94 14.86,10.48 32.51,15.67 53.06,15.67 3.29,0 5.89,0 7.68,-0.1 1.9,-0.11 3.39,-0.31 4.59,-0.51 l 0.3,-87.91 h -28.43 c -23.23,0 -40.69,-6.2 -52.46,-18.52 -11.67,-12.31 -17.55,-30.62 -17.55,-54.84 v -171.43 z m 411.94,40.29 c -10.77,-16.9 -24.83,-29.71 -42.19,-38.56 -17.35,-8.86 -37.5,-13.33 -60.54,-13.33 -30.82,0 -54.56,8.95 -71.22,26.76 -16.66,17.9 -25.04,43.34 -25.04,76.3 0,30.63 8.38,53.93 25.04,70 16.66,16.08 44.19,27.07 82.59,33.07 8.77,1.42 20.35,2.95 34.51,4.78 36.11,4.78 54.16,15.47 54.16,31.95 0,13.12 -3.99,22.59 -11.97,28.18 -7.98,5.7 -21.35,8.55 -40.1,8.55 -17.15,0 -30.32,-3.46 -39.5,-10.48 -9.17,-6.92 -13.76,-16.89 -13.76,-29.91 v -4.78 h -79.59 v 6 c 0,33.27 11.47,59.42 34.51,78.44 22.94,19.03 54.75,28.49 95.25,28.49 44.48,0 78.5,-7.83 102.24,-23.6 23.64,-15.67 35.51,-38.46 35.51,-68.07 v -184.06 c 0,-13.53 1.4,-23.7 4.09,-30.31 2.79,-6.72 7.38,-11.71 13.86,-15.06 v -14.65 h -88.57 c -2.89,5.59 -5.09,11.7 -6.68,18.52 -1.6,6.71 -2.4,14.03 -2.6,21.77 z m -1.49,119.14 c -13.87,-6.62 -29.83,-11.81 -47.78,-15.77 -18.06,-3.97 -27.33,-6.11 -27.93,-6.31 -15.06,-4.37 -25.53,-9.77 -31.52,-16.38 -5.88,-6.51 -8.88,-15.57 -8.88,-27.06 0,-11.91 3.8,-21.37 11.38,-28.39 7.68,-7.02 17.85,-10.58 30.72,-10.58 23.04,0 41.09,6.61 54.26,19.84 13.16,13.12 19.75,31.13 19.75,54.02 z m 157.39,279.49 h 82.59 v -155.06 c 10.57,16.89 23.73,29.71 39.59,38.36 15.87,8.65 33.92,12.92 54.17,12.92 38.4,0 69.81,-16.18 94.15,-48.43 24.34,-32.36 36.51,-74.27 36.51,-125.96 0,-51.28 -12.17,-92.79 -36.51,-124.33 -24.34,-31.64 -56.15,-47.41 -95.25,-47.41 -20.45,0 -38.3,4.37 -53.36,13.12 -15.06,8.75 -28.73,22.59 -41.1,41.72 v -43.85 h -80.79 z m 222.63,-274.61 c 0,29.81 -6.19,53.21 -18.45,70.21 -12.28,16.98 -29.13,25.53 -50.57,25.53 -22.55,0 -40.1,-8.34 -52.47,-24.93 -12.37,-16.58 -18.55,-40.18 -18.55,-70.81 0,-32.96 5.88,-58.1 17.65,-75.19 11.87,-17.09 29.03,-25.64 51.67,-25.64 22.94,0 40.5,8.65 52.56,25.85 12.07,17.19 18.16,42.12 18.16,74.98 z m 324.56,-124.02 c -10.77,-16.9 -24.83,-29.71 -42.19,-38.56 -17.35,-8.86 -37.5,-13.33 -60.54,-13.33 -30.83,0 -54.56,8.95 -71.22,26.76 -16.66,17.9 -25.04,43.34 -25.04,76.3 0,30.63 8.38,53.93 25.04,70 16.66,16.08 44.19,27.07 82.59,33.07 8.78,1.42 20.35,2.95 34.51,4.78 36.11,4.78 54.16,15.47 54.16,31.95 0,13.12 -3.99,22.59 -11.97,28.18 -7.98,5.7 -21.35,8.55 -40.1,8.55 -17.15,0 -30.32,-3.46 -39.5,-10.48 -9.17,-6.92 -13.76,-16.89 -13.76,-29.91 v -4.78 h -79.6 v 6 c 0,33.27 11.48,59.42 34.52,78.44 22.93,19.03 54.75,28.49 95.25,28.49 44.49,0 78.5,-7.83 102.24,-23.6 23.64,-15.67 35.51,-38.46 35.51,-68.07 v -184.06 c 0,-13.53 1.39,-23.7 4.09,-30.31 2.79,-6.72 7.38,-11.71 13.86,-15.06 v -14.65 h -88.57 c -2.9,5.59 -5.09,11.7 -6.68,18.52 -1.6,6.71 -2.4,14.03 -2.6,21.77 z m -1.49,119.14 c -13.87,-6.62 -29.83,-11.81 -47.78,-15.77 -18.05,-3.97 -27.33,-6.11 -27.93,-6.31 -15.06,-4.37 -25.53,-9.77 -31.52,-16.38 -5.88,-6.51 -8.88,-15.57 -8.88,-27.06 0,-11.91 3.8,-21.37 11.38,-28.39 7.68,-7.02 17.85,-10.58 30.72,-10.58 23.04,0 41.09,6.61 54.26,19.84 13.16,13.12 19.75,31.13 19.75,54.02 z m 157.39,200.74 v 78.14 h 84.98 v -78.14 z m -37.1,-492.65 v 72.65 h 16.66 c 7.17,0 12.36,1.73 15.65,5.19 3.19,3.46 4.79,9.05 4.79,16.79 v 362 h 84.98 v -375.94 c 0,-29.1 -7.98,-49.75 -23.94,-62.17 -15.95,-12.31 -43.29,-18.52 -82.09,-18.52 z m 267.51,294.86 c 0,-32.15 6.48,-56.98 19.45,-74.48 12.96,-17.5 31.42,-26.25 55.36,-26.25 23.53,0 41.78,8.75 54.75,26.25 12.97,17.5 19.45,42.33 19.45,74.48 0,31.95 -6.38,56.67 -19.25,74.07 -12.86,17.4 -31.22,26.05 -54.95,26.05 -23.94,0 -42.4,-8.65 -55.36,-26.05 -12.97,-17.4 -19.45,-42.12 -19.45,-74.07 z m -86.18,0.2 c 0,53.82 14.36,96.15 42.99,126.98 28.62,30.83 67.92,46.19 118,46.19 49.87,0 89.16,-15.36 117.89,-46.19 28.73,-30.83 43.09,-73.16 43.09,-126.98 0,-54.12 -14.36,-96.55 -43.09,-127.38 -28.73,-30.83 -68.02,-46.19 -117.89,-46.19 -50.08,0 -89.38,15.36 -118,46.19 -28.63,30.83 -42.99,73.26 -42.99,127.38" /><path
         id="path42"
         style="fill:#999999;fill-opacity:1;fill-rule:evenodd;stroke:none"
         d="m 2474.1,58.9102 v 15.8007 c -7.88,-12.2812 -19.48,-18.4375 -34.8,-18.4375 -9.92,0 -19.04,2.7149 -27.32,8.1954 -8.32,5.4453 -14.76,13.082 -19.36,22.8437 -4.56,9.7969 -6.84,21.0395 -6.84,33.7575 0,12.399 2.08,23.641 6.2,33.762 4.16,10.082 10.36,17.84 18.64,23.199 8.24,5.399 17.52,8.082 27.72,8.082 7.52,0 14.2,-1.601 20.04,-4.761 5.84,-3.161 10.6,-7.321 14.28,-12.399 v 61.801 h 21.12 V 58.9102 Z m -66.72,62.1208 c 0,-15.922 3.36,-27.8005 10.12,-35.6833 6.72,-7.875 14.68,-11.7969 23.84,-11.7969 9.24,0 17.08,3.7617 23.56,11.2812 6.44,7.5196 9.68,19 9.68,34.441 0,16.957 -3.28,29.438 -9.88,37.399 -6.56,7.961 -14.68,11.922 -24.32,11.922 -9.4,0 -17.24,-3.805 -23.56,-11.442 -6.28,-7.64 -9.44,-19.683 -9.44,-36.121 z m 204.76,-21.8005 21.84,-2.8789 c -3.4,-12.6797 -9.76,-22.5625 -19.03,-29.5586 -9.29,-7.0039 -21.13,-10.5196 -35.57,-10.5196 -18.16,0 -32.56,5.5977 -43.2,16.7969 -10.64,11.1602 -15.96,26.8789 -15.96,47.0817 0,20.879 5.36,37.118 16.12,48.637 10.76,11.563 24.72,17.324 41.88,17.324 16.6,0 30.16,-5.64 40.68,-16.965 10.52,-11.316 15.8,-27.238 15.8,-47.757 0,-1.239 -0.04,-3.121 -0.11,-5.602 h -92.77 c 0.81,-13.637 4.64,-24.1171 11.6,-31.3593 6.92,-7.2383 15.6,-10.8789 25.96,-10.8789 7.73,0 14.32,2.039 19.76,6.1211 5.48,4.0781 9.8,10.5976 13,19.5586 z m -69.12,33.8395 h 69.36 c -0.92,10.481 -3.59,18.321 -7.95,23.563 -6.69,8.117 -15.41,12.195 -26.09,12.195 -9.68,0 -17.8,-3.238 -24.4,-9.719 -6.56,-6.48 -10.2,-15.16 -10.92,-26.039 z m 109.25,-36.9606 20.87,3.3633 c 1.16,-8.3633 4.44,-14.7618 9.81,-19.2422 5.35,-4.4375 12.87,-6.6797 22.47,-6.6797 9.72,0 16.92,1.9609 21.65,5.918 4.68,3.9218 7.04,8.5625 7.04,13.8828 0,4.7578 -2.13,8.5194 -6.32,11.2384 -2.97,1.879 -10.17,4.242 -21.61,7.16 -15.43,3.883 -26.12,7.242 -32.12,10.082 -5.95,2.879 -10.48,6.801 -13.56,11.84 -3.08,5 -4.64,10.558 -4.64,16.641 0,5.558 1.28,10.679 3.8,15.398 2.56,4.719 6,8.641 10.36,11.758 3.28,2.402 7.77,4.441 13.4,6.125 5.69,1.676 11.72,2.519 18.21,2.519 9.75,0 18.32,-1.402 25.67,-4.242 7.4,-2.801 12.84,-6.641 16.36,-11.441 3.48,-4.84 5.92,-11.278 7.25,-19.36 l -20.65,-2.879 c -0.92,6.481 -3.64,11.559 -8.12,15.2 -4.48,3.64 -10.8,5.437 -19,5.437 -9.64,0 -16.56,-1.598 -20.68,-4.797 -4.12,-3.199 -6.2,-6.961 -6.2,-11.238 0,-2.723 0.85,-5.203 2.56,-7.402 1.72,-2.239 4.4,-4.118 8.08,-5.598 2.12,-0.801 8.28,-2.602 18.6,-5.402 14.88,-3.957 25.29,-7.239 31.2,-9.758 5.93,-2.52 10.57,-6.242 13.93,-11.043 3.39,-4.836 5.07,-10.84 5.07,-18.0392 0,-7 -2.04,-13.6016 -6.16,-19.8008 -4.11,-6.1992 -10.04,-11 -17.75,-14.3984 -7.77,-3.4024 -16.52,-5.0782 -26.29,-5.0782 -16.16,0 -28.52,3.3594 -37,10.0391 -8.48,6.7188 -13.88,16.6406 -16.23,29.7969 z M 2780.66,206.75 v 24.004 h 21.13 V 206.75 Z m 0,-147.8398 V 183.473 h 21.13 V 58.9102 Z m 49.45,-10.3204 20.39,-2.8789 c 0.84,-6.3203 3.25,-10.9218 7.16,-13.8398 5.24,-3.8789 12.41,-5.8398 21.49,-5.8398 9.76,0 17.31,1.9609 22.64,5.8398 5.32,3.8789 8.91,9.3594 10.8,16.3594 1.07,4.2812 1.6,13.2812 1.52,27 -9.24,-10.8789 -20.72,-16.3203 -34.48,-16.3203 -17.13,0 -30.41,6.1601 -39.77,18.5195 -9.4,12.3203 -14.07,27.1213 -14.07,44.3633 0,11.879 2.16,22.836 6.44,32.879 4.27,10.039 10.51,17.758 18.68,23.242 8.16,5.477 17.75,8.199 28.79,8.199 14.69,0 26.81,-6 36.32,-18.004 v 15.364 h 19.44 V 75.9102 c 0,-19.3985 -1.95,-33.1211 -5.91,-41.1993 -3.92,-8.082 -10.21,-14.4804 -18.72,-19.1601 -8.56,-4.6797 -19.08,-7.03908 -31.56,-7.03908 -14.84,0 -26.81,3.32028 -35.93,9.99998 -9.15,6.6367 -13.55,16.6797 -13.23,30.0781 z m 17.27,74.7232 c 0,-16.282 3.25,-28.1607 9.73,-35.6411 6.52,-7.4805 14.64,-11.2383 24.39,-11.2383 9.73,0 17.85,3.7187 24.45,11.1602 6.55,7.4375 9.84,19.1172 9.84,35.0392 0,15.199 -3.4,26.68 -10.16,34.398 -6.77,7.719 -14.92,11.563 -24.45,11.563 -9.39,0 -17.36,-3.805 -23.95,-11.403 -6.57,-7.601 -9.85,-18.878 -9.85,-33.878 z M 2967.46,58.9102 V 183.473 h 18.97 v -17.68 c 9.12,13.559 22.32,20.32 39.56,20.32 7.52,0 14.4,-1.359 20.67,-4.043 6.29,-2.679 11.01,-6.238 14.13,-10.597 3.12,-4.36 5.32,-9.563 6.56,-15.559 0.76,-3.922 1.16,-10.762 1.16,-20.523 V 58.9102 h -21.12 V 134.59 c 0,8.601 -0.8,15.043 -2.44,19.281 -1.64,4.242 -4.56,7.641 -8.72,10.199 -4.16,2.52 -9.09,3.801 -14.68,3.801 -8.96,0 -16.68,-2.84 -23.2,-8.558 -6.52,-5.684 -9.76,-16.524 -9.76,-32.442 V 58.9102 Z m 218.45,40.3203 21.84,-2.8789 c -3.41,-12.6797 -9.76,-22.5625 -19.04,-29.5586 -9.28,-7.0039 -21.12,-10.5196 -35.57,-10.5196 -18.15,0 -32.55,5.5977 -43.19,16.7969 -10.65,11.1602 -15.96,26.8789 -15.96,47.0817 0,20.879 5.36,37.118 16.12,48.637 10.76,11.563 24.71,17.324 41.88,17.324 16.6,0 30.16,-5.64 40.68,-16.965 10.52,-11.316 15.8,-27.238 15.8,-47.757 0,-1.239 -0.04,-3.121 -0.12,-5.602 h -92.76 c 0.8,-13.637 4.64,-24.1171 11.6,-31.3593 6.92,-7.2383 15.6,-10.8789 25.95,-10.8789 7.73,0 14.33,2.039 19.77,6.1211 5.48,4.0781 9.8,10.5976 13,19.5586 z m -69.12,33.8395 h 69.36 c -0.92,10.481 -3.6,18.321 -7.96,23.563 -6.68,8.117 -15.4,12.195 -26.08,12.195 -9.68,0 -17.8,-3.238 -24.4,-9.719 -6.57,-6.48 -10.2,-15.16 -10.92,-26.039 z m 198.03,-74.1598 v 15.8007 c -7.87,-12.2812 -19.47,-18.4375 -34.79,-18.4375 -9.92,0 -19.04,2.7149 -27.32,8.1954 -8.32,5.4453 -14.76,13.082 -19.36,22.8437 -4.56,9.7969 -6.84,21.0395 -6.84,33.7575 0,12.399 2.08,23.641 6.2,33.762 4.16,10.082 10.36,17.84 18.64,23.199 8.24,5.399 17.52,8.082 27.72,8.082 7.52,0 14.2,-1.601 20.04,-4.761 5.84,-3.161 10.6,-7.321 14.28,-12.399 v 61.801 h 21.12 V 58.9102 Z m -66.71,62.1208 c 0,-15.922 3.35,-27.8005 10.12,-35.6833 6.72,-7.875 14.68,-11.7969 23.84,-11.7969 9.24,0 17.08,3.7617 23.56,11.2812 6.44,7.5196 9.68,19 9.68,34.441 0,16.957 -3.28,29.438 -9.88,37.399 -6.56,7.961 -14.68,11.922 -24.32,11.922 -9.4,0 -17.24,-3.805 -23.56,-11.442 -6.28,-7.64 -9.44,-19.683 -9.44,-36.121 z m 205.92,-62.1208 h -19.68 V 230.754 h 21.12 V 169.43 c 8.92,11.121 20.28,16.683 34.12,16.683 7.64,0 14.92,-1.523 21.76,-4.601 6.84,-3.082 12.44,-7.442 16.88,-13 4.4,-5.602 7.88,-12.321 10.36,-20.203 2.52,-7.836 3.76,-16.278 3.76,-25.239 0,-21.281 -5.28,-37.7614 -15.8,-49.3591 -10.56,-11.6406 -23.2,-17.4375 -37.96,-17.4375 -14.68,0 -26.2,6.1172 -34.56,18.3204 z m -0.24,63.2028 c 0,-14.883 2.04,-25.6442 6.08,-32.281 6.64,-10.8398 15.6,-16.2812 26.92,-16.2812 9.24,0 17.2,4 23.88,12 6.72,8 10.08,19.9182 10.08,35.7582 0,16.242 -3.2,28.203 -9.64,35.921 -6.44,7.723 -14.24,11.598 -23.36,11.598 -9.24,0 -17.2,-3.996 -23.88,-11.996 -6.72,-8 -10.08,-19.559 -10.08,-34.719 z m 113.32,-111.0817 -2.4,19.5195 c 4.64,-1.2383 8.64,-1.8789 12.08,-1.8789 4.72,0 8.48,0.7969 11.28,2.3594 2.84,1.5585 5.16,3.7578 6.96,6.5585 1.32,2.1211 3.48,7.3594 6.44,15.7618 0.4,1.1601 1,2.8789 1.88,5.1601 l -47.28,124.9613 h 22.56 l 26,-71.922 c 3.4,-9.078 6.4,-18.6799 9.08,-28.7619 2.44,9.4843 5.32,18.8439 8.68,28.0429 l 26.56,72.641 h 21.08 L 3622.95,56.75 c -5.08,-13.6406 -9.04,-23 -11.88,-28.1602 -3.76,-6.9179 -8.08,-12 -12.92,-15.2421 -4.88,-3.2383 -10.68,-4.83598 -17.4,-4.83598 -4.08,0 -8.64,0.83984 -13.64,2.51958 z m 308.36,67.1171 c -5.08,-5.8789 -10.76,-10.5976 -17.08,-14.1562 -6.28,-3.5625 -12.6,-5.3242 -18.92,-5.3242 -6.96,0 -13.72,2.0429 -20.32,6.082 -6.56,4.082 -11.88,10.3203 -16,18.7617 -4.12,8.4414 -6.16,17.7183 -6.16,27.8013 0,12.437 3.2,24.878 9.56,37.355 6.36,12.441 14.28,21.805 23.72,28.082 9.44,6.242 18.64,9.363 27.52,9.363 6.8,0 13.28,-1.761 19.48,-5.32 6.16,-3.563 11.48,-9 15.92,-16.242 l 4.12,18.199 h 20.88 l -16.88,-78.719 c -2.36,-10.9607 -3.52,-16.9997 -3.52,-18.1599 0,-2.1211 0.8,-3.9609 2.4,-5.4805 1.6,-1.5195 3.56,-2.2812 5.8,-2.2812 4.16,0 9.6,2.3633 16.32,7.1211 8.92,6.2383 16,14.6015 21.2,25.1215 5.2,10.48 7.8,21.281 7.8,32.437 0,13.043 -3.36,25.203 -10.04,36.484 -6.68,11.317 -16.68,20.36 -29.96,27.157 -13.24,6.761 -27.92,10.16 -43.96,10.16 -18.32,0 -35.08,-4.277 -50.2,-12.797 -15.16,-8.563 -26.92,-20.801 -35.24,-36.762 -8.36,-15.961 -12.52,-33.078 -12.52,-51.359 0,-19.1212 4.16,-35.5626 12.48,-49.3595 8.36,-13.8437 20.4,-24.0391 36.16,-30.6445 15.76,-6.5977 33.2,-9.8789 52.36,-9.8789 20.52,0 37.68,3.4414 51.52,10.3632 13.84,6.879 24.2,15.2774 31.08,25.1602 h 21.12 c -4,-8.2031 -10.84,-16.6016 -20.52,-25.1211 -9.68,-8.5195 -21.2,-15.2812 -34.56,-20.2383 -13.36,-4.9609 -29.48,-7.44138 -48.28,-7.44138 -17.36,0 -33.36,2.23828 -48,6.67578 -14.68,4.4453 -27.16,11.1211 -37.48,20.043 -10.32,8.9609 -18.08,19.2422 -23.32,30.8398 -6.56,14.7617 -9.84,30.6797 -9.84,47.7617 0,18.996 3.92,37.16 11.72,54.398 9.56,21.122 23.12,37.325 40.68,48.563 17.56,11.238 38.84,16.84 63.88,16.84 19.4,0 36.84,-3.961 52.28,-11.879 15.44,-7.922 27.64,-19.723 36.52,-35.402 7.6,-13.481 11.4,-28.161 11.4,-44 0,-22.641 -7.96,-42.7231 -23.88,-60.2817 -14.24,-15.7578 -29.76,-23.6367 -46.64,-23.6367 -5.4,0 -9.72,0.8359 -13.04,2.4766 -3.32,1.6406 -5.76,4 -7.32,7.0781 -1.04,1.9648 -1.76,5.3633 -2.24,10.1601 z m -56.88,31.6836 c 0,-10.7187 2.56,-19.039 7.64,-24.9609 5.08,-5.957 10.88,-8.9219 17.48,-8.9219 4.36,0 8.96,1.3203 13.84,3.9219 4.84,2.6406 9.48,6.5195 13.88,11.6797 4.44,5.1601 8.04,11.7192 10.84,19.6402 2.84,7.918 4.24,15.879 4.24,23.879 0,10.602 -2.64,18.879 -7.92,24.719 -5.28,5.883 -11.72,8.805 -19.28,8.805 -5,0 -9.72,-1.281 -14.16,-3.805 -4.4,-2.559 -8.68,-6.637 -12.84,-12.277 -4.12,-5.598 -7.48,-12.438 -9.96,-20.52 -2.52,-8.039 -3.76,-15.441 -3.76,-22.16 z m 261.16,-5.32 20.64,-2.879 c -2.28,-14.2033 -8.04,-25.2814 -17.36,-33.3205 -9.32,-8.0391 -20.8,-12.0391 -34.36,-12.0391 -17,0 -30.68,5.5586 -41,16.6758 -10.36,11.1211 -15.52,27.043 -15.52,47.7618 0,13.441 2.24,25.16 6.68,35.242 4.44,10.039 11.2,17.598 20.32,22.598 9.08,5.043 18.96,7.562 29.68,7.562 13.48,0 24.56,-3.402 33.12,-10.242 8.6,-6.84 14.12,-16.558 16.52,-29.121 l -20.4,-3.121 c -1.96,8.363 -5.4,14.641 -10.4,18.883 -4.96,4.199 -10.96,6.316 -18,6.316 -10.64,0 -19.28,-3.797 -25.96,-11.394 -6.64,-7.641 -9.96,-19.645 -9.96,-36.125 0,-16.719 3.2,-28.8402 9.6,-36.3988 6.44,-7.5586 14.8,-11.3594 25.08,-11.3594 8.32,0 15.24,2.5195 20.76,7.6015 5.56,5.0391 9.08,12.836 10.56,23.3597 z m 120,-30.0003 c -7.84,-6.6797 -15.4,-11.3594 -22.64,-14.1211 -7.24,-2.7617 -15,-4.1172 -23.32,-4.1172 -13.68,0 -24.2,3.3164 -31.56,9.9961 -7.36,6.6407 -11.04,15.1641 -11.04,25.5196 0,6.082 1.4,11.6449 4.16,16.6839 2.8,5.039 6.44,9.039 10.92,12.078 4.52,3.043 9.56,5.359 15.2,6.922 4.16,1.078 10.44,2.117 18.8,3.156 17.04,2.004 29.64,4.441 37.68,7.242 0.08,2.879 0.12,4.723 0.12,5.481 0,8.558 -2,14.597 -6,18.121 -5.4,4.757 -13.44,7.121 -24.08,7.121 -9.96,0 -17.32,-1.762 -22.04,-5.242 -4.76,-3.481 -8.24,-9.641 -10.52,-18.52 l -20.64,2.879 c 1.88,8.84 4.96,16 9.28,21.437 4.32,5.442 10.56,9.602 18.72,12.563 8.12,2.918 17.6,4.402 28.32,4.402 10.64,0 19.32,-1.242 26,-3.761 6.64,-2.52 11.56,-5.641 14.68,-9.442 3.12,-3.801 5.32,-8.597 6.6,-14.398 0.68,-3.602 1.04,-10.078 1.04,-19.399 v -28.004 c 0,-19.5582 0.44,-31.9176 1.32,-37.1559 0.84,-5.2422 2.6,-10.2422 5.16,-15.0429 h -22.08 c -2.12,4.4414 -3.48,9.6406 -4.08,15.6015 z m -1.68,46.7973 c -7.68,-3.118 -19.2,-5.758 -34.56,-7.918 -8.72,-1.239 -14.88,-2.641 -18.48,-4.2 -3.6,-1.562 -6.36,-3.839 -8.32,-6.8 -1.96,-3.0004 -2.96,-6.3207 -2.96,-10.0004 0,-5.5586 2.12,-10.2383 6.4,-13.9609 4.28,-3.7188 10.52,-5.5977 18.72,-5.5977 8.12,0 15.36,1.7618 21.72,5.3164 6.32,3.5235 11,8.3633 13.96,14.4844 2.28,4.7578 3.4,11.7582 3.4,21.0002 z m 53.56,-62.3988 V 183.473 h 18.96 v -19.082 c 4.84,8.839 9.32,14.679 13.44,17.48 4.12,2.84 8.64,4.242 13.56,4.242 7.12,0 14.36,-2.242 21.72,-6.683 l -7.52,-19.477 c -5.12,2.879 -10.24,4.32 -15.36,4.32 -4.6,0 -8.72,-1.402 -12.36,-4.164 -3.64,-2.757 -6.24,-6.597 -7.8,-11.519 -2.36,-7.481 -3.52,-15.676 -3.52,-24.598 V 58.9102 Z m 79.68,0 V 230.754 h 21.12 V 58.9102 Z m 45.88,62.2808 c 0,23 6.4,40.039 19.24,51.122 10.68,9.199 23.77,13.8 39.16,13.8 17.08,0 31.08,-5.601 41.96,-16.8 10.84,-11.161 16.28,-26.641 16.28,-46.36 0,-16 -2.4,-28.5624 -7.2,-37.7225 -4.8,-9.1602 -11.8,-16.2774 -21,-21.3594 -9.16,-5.0781 -19.2,-7.5977 -30.04,-7.5977 -17.44,0 -31.52,5.5586 -42.28,16.7188 -10.76,11.1601 -16.12,27.2378 -16.12,48.1988 z m 21.6,-0.039 c 0,-15.922 3.48,-27.8395 10.44,-35.7184 7,-7.9219 15.76,-11.8828 26.36,-11.8828 10.48,0 19.2,3.9609 26.2,11.9219 6.96,7.957 10.44,20.0783 10.44,36.3593 0,15.359 -3.52,27 -10.52,34.879 -7,7.922 -15.72,11.883 -26.12,11.883 -10.6,0 -19.36,-3.922 -26.36,-11.801 -6.96,-7.883 -10.44,-19.762 -10.44,-35.641 z m 111.41,-25.0426 20.87,3.3633 c 1.16,-8.3633 4.44,-14.7618 9.8,-19.2422 5.36,-4.4375 12.88,-6.6797 22.48,-6.6797 9.72,0 16.92,1.9609 21.64,5.918 4.69,3.9218 7.04,8.5625 7.04,13.8828 0,4.7578 -2.12,8.5194 -6.32,11.2384 -2.96,1.879 -10.16,4.242 -21.6,7.16 -15.44,3.883 -26.12,7.242 -32.12,10.082 -5.95,2.879 -10.48,6.801 -13.56,11.84 -3.08,5 -4.64,10.558 -4.64,16.641 0,5.558 1.28,10.679 3.8,15.398 2.56,4.719 6,8.641 10.36,11.758 3.28,2.402 7.76,4.441 13.4,6.125 5.68,1.676 11.72,2.519 18.2,2.519 9.76,0 18.33,-1.402 25.68,-4.242 7.4,-2.801 12.84,-6.641 16.36,-11.441 3.48,-4.84 5.92,-11.278 7.24,-19.36 l -20.64,-2.879 c -0.92,6.481 -3.64,11.559 -8.12,15.2 -4.48,3.64 -10.8,5.437 -19,5.437 -9.64,0 -16.56,-1.598 -20.68,-4.797 -4.12,-3.199 -6.2,-6.961 -6.2,-11.238 0,-2.723 0.85,-5.203 2.56,-7.402 1.72,-2.239 4.4,-4.118 8.08,-5.598 2.12,-0.801 8.28,-2.602 18.6,-5.402 14.88,-3.957 25.28,-7.239 31.2,-9.758 5.92,-2.52 10.57,-6.242 13.92,-11.043 3.4,-4.836 5.08,-10.84 5.08,-18.0392 0,-7 -2.04,-13.6016 -6.16,-19.8008 -4.11,-6.1992 -10.04,-11 -17.76,-14.3984 -7.76,-3.4024 -16.52,-5.0782 -26.28,-5.0782 -16.16,0 -28.52,3.3594 -37,10.0391 -8.48,6.7188 -13.88,16.6406 -16.23,29.7969 z M 4638.59,206.75 v 24.004 h 21.12 V 206.75 Z m 0,-147.8398 V 183.473 h 21.12 V 58.9102 Z m 44.93,37.1992 20.87,3.3633 c 1.16,-8.3633 4.44,-14.7618 9.81,-19.2422 5.35,-4.4375 12.87,-6.6797 22.47,-6.6797 9.72,0 16.92,1.9609 21.65,5.918 4.68,3.9218 7.04,8.5625 7.04,13.8828 0,4.7578 -2.13,8.5194 -6.32,11.2384 -2.97,1.879 -10.16,4.242 -21.6,7.16 -15.44,3.883 -26.13,7.242 -32.13,10.082 -5.95,2.879 -10.48,6.801 -13.56,11.84 -3.07,5 -4.64,10.558 -4.64,16.641 0,5.558 1.28,10.679 3.8,15.398 2.56,4.719 6,8.641 10.36,11.758 3.28,2.402 7.77,4.441 13.4,6.125 5.69,1.676 11.72,2.519 18.21,2.519 9.75,0 18.32,-1.402 25.67,-4.242 7.4,-2.801 12.84,-6.641 16.36,-11.441 3.48,-4.84 5.93,-11.278 7.25,-19.36 l -20.65,-2.879 c -0.92,6.481 -3.63,11.559 -8.12,15.2 -4.48,3.64 -10.8,5.437 -19,5.437 -9.64,0 -16.56,-1.598 -20.68,-4.797 -4.12,-3.199 -6.2,-6.961 -6.2,-11.238 0,-2.723 0.85,-5.203 2.56,-7.402 1.72,-2.239 4.41,-4.118 8.08,-5.598 2.12,-0.801 8.28,-2.602 18.6,-5.402 14.88,-3.957 25.29,-7.239 31.2,-9.758 5.93,-2.52 10.57,-6.242 13.93,-11.043 3.39,-4.836 5.07,-10.84 5.07,-18.0392 0,-7 -2.04,-13.6016 -6.16,-19.8008 -4.11,-6.1992 -10.04,-11 -17.75,-14.3984 -7.77,-3.4024 -16.52,-5.0782 -26.29,-5.0782 -16.16,0 -28.52,3.3594 -37,10.0391 -8.48,6.7188 -13.87,16.6406 -16.23,29.7969 z M 4811.68,58.9102 V 183.473 h 18.96 v -19.082 c 4.83,8.839 9.32,14.679 13.43,17.48 4.13,2.84 8.64,4.242 13.57,4.242 7.12,0 14.36,-2.242 21.72,-6.683 l -7.52,-19.477 c -5.13,2.879 -10.24,4.32 -15.36,4.32 -4.6,0 -8.72,-1.402 -12.36,-4.164 -3.64,-2.757 -6.24,-6.597 -7.8,-11.519 -2.36,-7.481 -3.52,-15.676 -3.52,-24.598 V 58.9102 Z m 161.52,15.6015 c -7.84,-6.6797 -15.4,-11.3594 -22.65,-14.1211 -7.23,-2.7617 -14.99,-4.1172 -23.32,-4.1172 -13.68,0 -24.19,3.3164 -31.55,9.9961 -7.36,6.6407 -11.04,15.1641 -11.04,25.5196 0,6.082 1.4,11.6449 4.16,16.6839 2.79,5.039 6.43,9.039 10.91,12.078 4.52,3.043 9.56,5.359 15.2,6.922 4.17,1.078 10.45,2.117 18.8,3.156 17.05,2.004 29.65,4.441 37.68,7.242 0.09,2.879 0.13,4.723 0.13,5.481 0,8.558 -2,14.597 -6,18.121 -5.4,4.757 -13.45,7.121 -24.08,7.121 -9.96,0 -17.32,-1.762 -22.04,-5.242 -4.77,-3.481 -8.24,-9.641 -10.52,-18.52 l -20.65,2.879 c 1.88,8.84 4.97,16 9.29,21.437 4.32,5.442 10.55,9.602 18.71,12.563 8.13,2.918 17.61,4.402 28.33,4.402 10.64,0 19.32,-1.242 26,-3.761 6.64,-2.52 11.56,-5.641 14.68,-9.442 3.12,-3.801 5.31,-8.597 6.6,-14.398 0.68,-3.602 1.04,-10.078 1.04,-19.399 v -28.004 c 0,-19.5582 0.44,-31.9176 1.32,-37.1559 0.84,-5.2422 2.6,-10.2422 5.16,-15.0429 h -22.09 c -2.11,4.4414 -3.47,9.6406 -4.07,15.6015 z m -1.68,46.7973 c -7.68,-3.118 -19.2,-5.758 -34.57,-7.918 -8.72,-1.239 -14.88,-2.641 -18.47,-4.2 -3.6,-1.562 -6.37,-3.839 -8.32,-6.8 -1.96,-3.0004 -2.96,-6.3207 -2.96,-10.0004 0,-5.5586 2.12,-10.2383 6.39,-13.9609 4.29,-3.7188 10.53,-5.5977 18.73,-5.5977 8.12,0 15.36,1.7618 21.72,5.3164 6.32,3.5235 11,8.3633 13.96,14.4844 2.28,4.7578 3.39,11.7582 3.39,21.0002 z m 138.76,-22.0785 21.84,-2.8789 c -3.41,-12.6797 -9.76,-22.5625 -19.04,-29.5586 -9.28,-7.0039 -21.12,-10.5196 -35.56,-10.5196 -18.16,0 -32.56,5.5977 -43.2,16.7969 -10.64,11.1602 -15.96,26.8789 -15.96,47.0817 0,20.879 5.36,37.118 16.12,48.637 10.75,11.563 24.72,17.324 41.88,17.324 16.6,0 30.16,-5.64 40.68,-16.965 10.51,-11.316 15.8,-27.238 15.8,-47.757 0,-1.239 -0.04,-3.121 -0.12,-5.602 h -92.76 c 0.8,-13.637 4.64,-24.1171 11.6,-31.3593 6.92,-7.2383 15.6,-10.8789 25.96,-10.8789 7.72,0 14.32,2.039 19.76,6.1211 5.48,4.0781 9.79,10.5976 13,19.5586 z m -69.12,33.8395 h 69.36 c -0.92,10.481 -3.6,18.321 -7.96,23.563 -6.68,8.117 -15.4,12.195 -26.08,12.195 -9.68,0 -17.8,-3.238 -24.41,-9.719 -6.55,-6.48 -10.19,-15.16 -10.91,-26.039 z M 5158.32,58.9102 V 230.754 h 21.12 V 58.9102 Z M 5212,206.273 v 24.481 h 21.12 v -24.481 z m -26.72,-195.523 3.88,17.8828 c 4.24,-1.082 7.55,-1.6445 10,-1.6445 4.32,0 7.52,1.4414 9.64,4.2812 2.12,2.8399 3.2,10 3.2,21.4024 V 183.473 h 21.12 V 52.2305 c 0,-15.3203 -2,-26 -6,-32 -5.08,-7.8008 -13.52,-11.71878 -25.32,-11.71878 -5.73,0 -11.2,0.75781 -16.52,2.23828" /></g></g></svg>